<svg width="1920" height="1080" viewBox="0 0 1920 1080" fill="none" xmlns="http://www.w3.org/2000/svg">
<g opacity="0.4" filter="url(#filter0_f)">
<circle cx="877" cy="99" r="50" fill="white" fill-opacity="0.8"/>
<circle cx="910" cy="136" r="50" fill="white" fill-opacity="0.8"/>
<circle cx="844" cy="163" r="50" fill="white" fill-opacity="0.8"/>
<circle cx="1041" cy="1095" r="50" fill="#FFC700" fill-opacity="0.7"/>
<circle cx="1095" cy="1047" r="50" fill="#FFC700" fill-opacity="0.7"/>
<circle cx="1161" cy="1031" r="50" fill="#FFC700" fill-opacity="0.7"/>
<circle cx="1205" cy="973" r="50" fill="#FFC700" fill-opacity="0.7"/>
<circle cx="1728" cy="494" r="50" fill="white" fill-opacity="0.8"/>
<circle cx="1782" cy="484" r="50" fill="white" fill-opacity="0.8"/>
<circle cx="1801" cy="565" r="50" fill="white" fill-opacity="0.8"/>
<circle cx="1709" cy="551" r="50" fill="white" fill-opacity="0.8"/>
<circle cx="1247" cy="408" r="100" fill="white" fill-opacity="0.7"/>
<circle cx="1147" cy="508" r="100" fill="white" fill-opacity="0.7"/>
<circle cx="1236" cy="665" r="100" fill="white" fill-opacity="0.7"/>
<circle cx="1002" cy="465" r="100" fill="white" fill-opacity="0.7"/>
<circle cx="1036" cy="640" r="100" fill="white" fill-opacity="0.7"/>
<circle cx="1247" cy="408" r="100" fill="white" fill-opacity="0.7"/>
<circle cx="493" cy="1005" r="100" fill="white" fill-opacity="0.7"/>
<circle cx="593" cy="1005" r="100" fill="white" fill-opacity="0.7"/>
<circle cx="406" cy="926" r="100" fill="white" fill-opacity="0.7"/>
<circle cx="1899" cy="740" r="100" fill="black" fill-opacity="0.8"/>
<circle cx="1872" cy="865" r="100" fill="black" fill-opacity="0.8"/>
<circle cx="1772" cy="926" r="100" fill="black" fill-opacity="0.8"/>
<circle cx="362" cy="217" r="100" fill="white" fill-opacity="0.7"/>
<circle cx="414" cy="317" r="100" fill="white" fill-opacity="0.7"/>
<circle cx="314" cy="384" r="100" fill="white" fill-opacity="0.7"/>
<circle cx="150" cy="5" r="100" fill="white" fill-opacity="0.7"/>
<circle cx="150" cy="117" r="100" fill="white" fill-opacity="0.7"/>
<circle cx="462" cy="232" r="100" fill="white" fill-opacity="0.7"/>
<circle cx="237" cy="132" r="100" fill="white" fill-opacity="0.7"/>
<circle cx="1872" cy="48" r="100" fill="#7B80FE" fill-opacity="0.8"/>
<circle cx="1739" r="100" fill="#7B80FE" fill-opacity="0.8"/>
<ellipse cx="1929.5" cy="200" rx="90.5" ry="100" fill="#7B80FE" fill-opacity="0.8"/>
<circle cx="21" cy="1080" r="100" fill="#FFC700" fill-opacity="0.7"/>
<circle cy="922" r="100" fill="#FFC700" fill-opacity="0.7"/>
<circle cx="200" cy="1105" r="100" fill="#FFC700" fill-opacity="0.7"/>
<circle cx="606" cy="577" r="50" fill="black" fill-opacity="0.8"/>
<circle cx="666" cy="575" r="50" fill="black" fill-opacity="0.8"/>
<circle cx="637" cy="627" r="50" fill="black" fill-opacity="0.8"/>
<ellipse cx="1111.15" cy="-58.5864" rx="176.854" ry="123.414" fill="#7B80FE" fill-opacity="0.7"/>
<ellipse cx="934.292" cy="64.8271" rx="176.854" ry="123.414" fill="#7B80FE" fill-opacity="0.7"/>
<ellipse cx="1091.69" cy="258.586" rx="176.854" ry="123.414" fill="#7B80FE" fill-opacity="0.7"/>
<ellipse cx="677.854" cy="11.7593" rx="176.854" ry="123.414" fill="#7B80FE" fill-opacity="0.7"/>
<ellipse cx="737.984" cy="227.733" rx="176.854" ry="123.414" fill="#7B80FE" fill-opacity="0.7"/>
<ellipse cx="1111.15" cy="-58.5864" rx="176.854" ry="123.414" fill="#7B80FE" fill-opacity="0.7"/>
</g>
<defs>
<filter id="filter0_f" x="-300" y="-382" width="2520" height="1787" filterUnits="userSpaceOnUse" color-interpolation-filters="sRGB">
<feFlood flood-opacity="0" result="BackgroundImageFix"/>
<feBlend mode="normal" in="SourceGraphic" in2="BackgroundImageFix" result="shape"/>
<feGaussianBlur stdDeviation="100" result="effect1_foregroundBlur"/>
</filter>
</defs>
</svg>
