<svg width="1920" height="1080" viewBox="0 0 1920 1080" fill="none" xmlns="http://www.w3.org/2000/svg">
<ellipse cx="83.6847" cy="7.02783" rx="0.593509" ry="0.593506" fill="white"/>
<circle cx="172.711" cy="7.02783" r="0.593506" fill="white"/>
<ellipse cx="261.737" cy="7.02783" rx="0.593502" ry="0.593506" fill="white"/>
<ellipse cx="350.763" cy="7.02783" rx="0.593535" ry="0.593506" fill="white"/>
<ellipse cx="439.79" cy="7.02783" rx="0.593494" ry="0.593506" fill="white"/>
<ellipse cx="528.816" cy="7.02783" rx="0.593494" ry="0.593506" fill="white"/>
<ellipse cx="617.842" cy="7.02783" rx="0.59351" ry="0.593506" fill="white"/>
<ellipse cx="706.869" cy="7.02783" rx="0.593527" ry="0.593506" fill="white"/>
<ellipse cx="795.895" cy="7.02783" rx="0.593494" ry="0.593506" fill="white"/>
<ellipse cx="884.921" cy="7.02783" rx="0.593527" ry="0.593506" fill="white"/>
<ellipse cx="77.7496" cy="66.3787" rx="0.593507" ry="0.59351" fill="white"/>
<circle cx="166.776" cy="66.3787" r="0.59351" fill="white"/>
<circle cx="255.802" cy="66.3787" r="0.59351" fill="white"/>
<ellipse cx="344.828" cy="66.3787" rx="0.593502" ry="0.59351" fill="white"/>
<circle cx="433.855" cy="66.3787" r="0.59351" fill="white"/>
<circle cx="522.881" cy="66.3787" r="0.59351" fill="white"/>
<ellipse cx="611.907" cy="66.3787" rx="0.593445" ry="0.59351" fill="white"/>
<ellipse cx="700.934" cy="66.3787" rx="0.593494" ry="0.59351" fill="white"/>
<ellipse cx="789.96" cy="66.3787" rx="0.593527" ry="0.59351" fill="white"/>
<ellipse cx="878.986" cy="66.3787" rx="0.593527" ry="0.59351" fill="white"/>
<circle cx="119.295" cy="125.73" r="0.59351" fill="white"/>
<ellipse cx="208.321" cy="125.73" rx="0.593522" ry="0.59351" fill="white"/>
<circle cx="297.348" cy="125.73" r="0.59351" fill="white"/>
<ellipse cx="386.374" cy="125.73" rx="0.593494" ry="0.59351" fill="white"/>
<ellipse cx="475.4" cy="125.73" rx="0.593527" ry="0.59351" fill="white"/>
<circle cx="564.427" cy="125.73" r="0.59351" fill="white"/>
<ellipse cx="653.453" cy="125.73" rx="0.593527" ry="0.59351" fill="white"/>
<ellipse cx="742.479" cy="125.73" rx="0.593494" ry="0.59351" fill="white"/>
<ellipse cx="831.505" cy="125.73" rx="0.593527" ry="0.59351" fill="white"/>
<ellipse cx="920.532" cy="125.73" rx="0.593527" ry="0.59351" fill="white"/>
<ellipse cx="101.49" cy="185.08" rx="0.593511" ry="0.59351" fill="white"/>
<circle cx="190.516" cy="185.08" r="0.59351" fill="white"/>
<circle cx="279.542" cy="185.08" r="0.59351" fill="white"/>
<ellipse cx="368.569" cy="185.08" rx="0.593527" ry="0.59351" fill="white"/>
<circle cx="457.595" cy="185.08" r="0.59351" fill="white"/>
<circle cx="546.621" cy="185.08" r="0.59351" fill="white"/>
<ellipse cx="635.648" cy="185.08" rx="0.593494" ry="0.59351" fill="white"/>
<ellipse cx="724.674" cy="185.08" rx="0.593527" ry="0.59351" fill="white"/>
<ellipse cx="813.7" cy="185.08" rx="0.593527" ry="0.59351" fill="white"/>
<ellipse cx="902.726" cy="185.08" rx="0.593494" ry="0.59351" fill="white"/>
<circle cx="119.295" cy="244.431" r="0.59351" fill="white"/>
<ellipse cx="208.321" cy="244.431" rx="0.593522" ry="0.59351" fill="white"/>
<circle cx="297.348" cy="244.431" r="0.59351" fill="white"/>
<ellipse cx="386.374" cy="244.431" rx="0.593494" ry="0.59351" fill="white"/>
<ellipse cx="475.4" cy="244.431" rx="0.593527" ry="0.59351" fill="white"/>
<circle cx="564.427" cy="244.431" r="0.59351" fill="white"/>
<ellipse cx="653.453" cy="244.431" rx="0.593527" ry="0.59351" fill="white"/>
<ellipse cx="742.479" cy="244.431" rx="0.593494" ry="0.59351" fill="white"/>
<ellipse cx="831.505" cy="244.431" rx="0.593527" ry="0.59351" fill="white"/>
<ellipse cx="920.532" cy="244.431" rx="0.593527" ry="0.59351" fill="white"/>
<ellipse cx="89.6198" cy="304.969" rx="0.593509" ry="0.59351" fill="white"/>
<circle cx="178.646" cy="304.969" r="0.59351" fill="white"/>
<ellipse cx="267.672" cy="304.969" rx="0.593502" ry="0.59351" fill="white"/>
<ellipse cx="356.699" cy="304.969" rx="0.593535" ry="0.59351" fill="white"/>
<circle cx="445.725" cy="304.969" r="0.59351" fill="white"/>
<circle cx="534.751" cy="304.969" r="0.59351" fill="white"/>
<ellipse cx="623.778" cy="304.969" rx="0.593559" ry="0.59351" fill="white"/>
<ellipse cx="712.804" cy="304.969" rx="0.593494" ry="0.59351" fill="white"/>
<ellipse cx="801.83" cy="304.969" rx="0.593527" ry="0.59351" fill="white"/>
<ellipse cx="890.856" cy="304.969" rx="0.593494" ry="0.59351" fill="white"/>
<ellipse cx="125.23" cy="364.32" rx="0.593508" ry="0.59351" fill="white"/>
<circle cx="214.257" cy="364.32" r="0.59351" fill="white"/>
<ellipse cx="303.283" cy="364.32" rx="0.593535" ry="0.59351" fill="white"/>
<circle cx="392.309" cy="364.32" r="0.59351" fill="white"/>
<circle cx="481.335" cy="364.32" r="0.59351" fill="white"/>
<ellipse cx="570.362" cy="364.32" rx="0.593559" ry="0.59351" fill="white"/>
<ellipse cx="659.388" cy="364.32" rx="0.593429" ry="0.59351" fill="white"/>
<ellipse cx="748.414" cy="364.32" rx="0.593527" ry="0.59351" fill="white"/>
<ellipse cx="837.44" cy="364.32" rx="0.593494" ry="0.59351" fill="white"/>
<ellipse cx="113.36" cy="423.671" rx="0.593508" ry="0.59351" fill="white"/>
<ellipse cx="202.386" cy="423.671" rx="0.593494" ry="0.59351" fill="white"/>
<circle cx="291.413" cy="423.671" r="0.59351" fill="white"/>
<ellipse cx="380.439" cy="423.671" rx="0.593543" ry="0.59351" fill="white"/>
<circle cx="469.465" cy="423.671" r="0.59351" fill="white"/>
<ellipse cx="558.491" cy="423.671" rx="0.593445" ry="0.59351" fill="white"/>
<ellipse cx="647.518" cy="423.671" rx="0.593559" ry="0.59351" fill="white"/>
<ellipse cx="736.544" cy="423.671" rx="0.593527" ry="0.59351" fill="white"/>
<ellipse cx="825.57" cy="423.671" rx="0.593527" ry="0.59351" fill="white"/>
<ellipse cx="914.597" cy="423.671" rx="0.593494" ry="0.59351" fill="white"/>
<ellipse cx="148.971" cy="483.021" rx="0.593514" ry="0.593494" fill="white"/>
<ellipse cx="237.997" cy="483.021" rx="0.59351" ry="0.593494" fill="white"/>
<ellipse cx="327.023" cy="483.021" rx="0.593535" ry="0.593494" fill="white"/>
<ellipse cx="416.049" cy="483.021" rx="0.59351" ry="0.593494" fill="white"/>
<circle cx="505.076" cy="483.021" r="0.593494" fill="white"/>
<ellipse cx="594.102" cy="483.021" rx="0.593559" ry="0.593494" fill="white"/>
<ellipse cx="683.128" cy="483.021" rx="0.593527" ry="0.593494" fill="white"/>
<ellipse cx="772.154" cy="483.021" rx="0.593527" ry="0.593494" fill="white"/>
<circle cx="861.181" cy="483.021" r="0.593494" fill="white"/>
<ellipse cx="950.207" cy="483.021" rx="0.593722" ry="0.593494" fill="white"/>
<ellipse cx="101.49" cy="542.372" rx="0.593511" ry="0.593494" fill="white"/>
<ellipse cx="190.516" cy="542.372" rx="0.59351" ry="0.593494" fill="white"/>
<ellipse cx="279.542" cy="542.372" rx="0.59351" ry="0.593494" fill="white"/>
<ellipse cx="368.569" cy="542.372" rx="0.593527" ry="0.593494" fill="white"/>
<ellipse cx="457.595" cy="542.372" rx="0.59351" ry="0.593494" fill="white"/>
<ellipse cx="546.621" cy="542.372" rx="0.59351" ry="0.593494" fill="white"/>
<circle cx="635.648" cy="542.372" r="0.593494" fill="white"/>
<ellipse cx="724.674" cy="542.372" rx="0.593527" ry="0.593494" fill="white"/>
<ellipse cx="813.7" cy="542.372" rx="0.593527" ry="0.593494" fill="white"/>
<circle cx="902.726" cy="542.372" r="0.593494" fill="white"/>
<ellipse cx="119.295" cy="601.723" rx="0.59351" ry="0.593494" fill="white"/>
<ellipse cx="208.321" cy="601.723" rx="0.593522" ry="0.593494" fill="white"/>
<ellipse cx="297.348" cy="601.723" rx="0.59351" ry="0.593494" fill="white"/>
<circle cx="386.374" cy="601.723" r="0.593494" fill="white"/>
<ellipse cx="475.4" cy="601.723" rx="0.593527" ry="0.593494" fill="white"/>
<ellipse cx="564.427" cy="601.723" rx="0.59351" ry="0.593494" fill="white"/>
<ellipse cx="653.453" cy="601.723" rx="0.593527" ry="0.593494" fill="white"/>
<circle cx="742.479" cy="601.723" r="0.593494" fill="white"/>
<ellipse cx="831.505" cy="601.723" rx="0.593527" ry="0.593494" fill="white"/>
<ellipse cx="920.532" cy="601.723" rx="0.593527" ry="0.593494" fill="white"/>
<ellipse cx="160.841" cy="667.009" rx="0.593506" ry="0.593494" fill="white"/>
<ellipse cx="249.867" cy="667.009" rx="0.59351" ry="0.593494" fill="white"/>
<ellipse cx="338.893" cy="667.009" rx="0.593502" ry="0.593494" fill="white"/>
<ellipse cx="427.92" cy="667.009" rx="0.59351" ry="0.593494" fill="white"/>
<ellipse cx="516.946" cy="667.009" rx="0.593559" ry="0.593494" fill="white"/>
<ellipse cx="605.972" cy="667.009" rx="0.593445" ry="0.593494" fill="white"/>
<ellipse cx="694.998" cy="667.009" rx="0.593527" ry="0.593494" fill="white"/>
<circle cx="784.025" cy="667.009" r="0.593494" fill="white"/>
<circle cx="873.051" cy="667.009" r="0.593494" fill="white"/>
<ellipse cx="962.077" cy="667.009" rx="0.593527" ry="0.593494" fill="white"/>
<ellipse cx="125.23" cy="732.295" rx="0.593508" ry="0.593527" fill="white"/>
<ellipse cx="214.257" cy="732.295" rx="0.59351" ry="0.593527" fill="white"/>
<ellipse cx="303.283" cy="732.295" rx="0.593535" ry="0.593527" fill="white"/>
<ellipse cx="392.309" cy="732.295" rx="0.59351" ry="0.593527" fill="white"/>
<ellipse cx="481.335" cy="732.295" rx="0.59351" ry="0.593527" fill="white"/>
<ellipse cx="570.362" cy="732.295" rx="0.593559" ry="0.593527" fill="white"/>
<ellipse cx="659.388" cy="732.295" rx="0.593429" ry="0.593527" fill="white"/>
<circle cx="748.414" cy="732.295" r="0.593527" fill="white"/>
<ellipse cx="837.44" cy="732.295" rx="0.593494" ry="0.593527" fill="white"/>
<ellipse cx="926.467" cy="732.295" rx="0.593494" ry="0.593527" fill="white"/>
<ellipse cx="172.711" cy="796.394" rx="0.593506" ry="0.593527" fill="white"/>
<ellipse cx="261.737" cy="796.394" rx="0.593502" ry="0.593527" fill="white"/>
<ellipse cx="350.763" cy="796.394" rx="0.593535" ry="0.593527" fill="white"/>
<ellipse cx="439.79" cy="796.394" rx="0.593494" ry="0.593527" fill="white"/>
<ellipse cx="528.816" cy="796.394" rx="0.593494" ry="0.593527" fill="white"/>
<ellipse cx="617.842" cy="796.394" rx="0.59351" ry="0.593527" fill="white"/>
<circle cx="706.869" cy="796.394" r="0.593527" fill="white"/>
<ellipse cx="795.895" cy="796.394" rx="0.593494" ry="0.593527" fill="white"/>
<circle cx="884.921" cy="796.394" r="0.593527" fill="white"/>
<ellipse cx="137.101" cy="861.68" rx="0.593508" ry="0.593527" fill="white"/>
<ellipse cx="226.127" cy="861.68" rx="0.59351" ry="0.593527" fill="white"/>
<ellipse cx="315.153" cy="861.68" rx="0.593518" ry="0.593527" fill="white"/>
<ellipse cx="404.179" cy="861.68" rx="0.59351" ry="0.593527" fill="white"/>
<ellipse cx="493.205" cy="861.68" rx="0.593494" ry="0.593527" fill="white"/>
<ellipse cx="582.232" cy="861.68" rx="0.593494" ry="0.593527" fill="white"/>
<circle cx="671.258" cy="861.68" r="0.593527" fill="white"/>
<circle cx="760.284" cy="861.68" r="0.593527" fill="white"/>
<ellipse cx="849.311" cy="861.68" rx="0.593494" ry="0.593527" fill="white"/>
<circle cx="938.337" cy="861.68" r="0.593527" fill="white"/>
<ellipse cx="101.49" cy="926.966" rx="0.593511" ry="0.593494" fill="white"/>
<ellipse cx="190.516" cy="926.966" rx="0.59351" ry="0.593494" fill="white"/>
<ellipse cx="279.542" cy="926.966" rx="0.59351" ry="0.593494" fill="white"/>
<ellipse cx="368.569" cy="926.966" rx="0.593527" ry="0.593494" fill="white"/>
<ellipse cx="457.595" cy="926.966" rx="0.59351" ry="0.593494" fill="white"/>
<ellipse cx="546.621" cy="926.966" rx="0.59351" ry="0.593494" fill="white"/>
<circle cx="635.648" cy="926.966" r="0.593494" fill="white"/>
<ellipse cx="724.674" cy="926.966" rx="0.593527" ry="0.593494" fill="white"/>
<ellipse cx="813.7" cy="926.966" rx="0.593527" ry="0.593494" fill="white"/>
<circle cx="902.726" cy="926.966" r="0.593494" fill="white"/>
<ellipse cx="137.101" cy="992.252" rx="0.593508" ry="0.593494" fill="white"/>
<ellipse cx="226.127" cy="992.252" rx="0.59351" ry="0.593494" fill="white"/>
<ellipse cx="315.153" cy="992.252" rx="0.593518" ry="0.593494" fill="white"/>
<ellipse cx="404.179" cy="992.252" rx="0.59351" ry="0.593494" fill="white"/>
<circle cx="493.205" cy="992.252" r="0.593494" fill="white"/>
<circle cx="582.232" cy="992.252" r="0.593494" fill="white"/>
<ellipse cx="671.258" cy="992.252" rx="0.593527" ry="0.593494" fill="white"/>
<ellipse cx="760.284" cy="992.252" rx="0.593527" ry="0.593494" fill="white"/>
<circle cx="849.311" cy="992.252" r="0.593494" fill="white"/>
<ellipse cx="113.36" cy="1051.6" rx="0.593508" ry="0.593494" fill="white"/>
<circle cx="202.386" cy="1051.6" r="0.593494" fill="white"/>
<ellipse cx="291.413" cy="1051.6" rx="0.59351" ry="0.593494" fill="white"/>
<ellipse cx="380.439" cy="1051.6" rx="0.593543" ry="0.593494" fill="white"/>
<ellipse cx="469.465" cy="1051.6" rx="0.59351" ry="0.593494" fill="white"/>
<ellipse cx="558.491" cy="1051.6" rx="0.593445" ry="0.593494" fill="white"/>
<ellipse cx="647.518" cy="1051.6" rx="0.593559" ry="0.593494" fill="white"/>
<ellipse cx="736.544" cy="1051.6" rx="0.593527" ry="0.593494" fill="white"/>
<ellipse cx="825.57" cy="1051.6" rx="0.593527" ry="0.593494" fill="white"/>
<ellipse cx="825.57" cy="1051.6" rx="0.593527" ry="0.593494" fill="white"/>
<ellipse cx="938.337" cy="992.252" rx="0.593527" ry="0.593494" fill="white"/>
<ellipse cx="113.36" cy="12.9628" rx="0.593508" ry="0.59351" fill="white"/>
<ellipse cx="202.386" cy="12.9628" rx="0.593494" ry="0.59351" fill="white"/>
<circle cx="291.413" cy="12.9628" r="0.59351" fill="white"/>
<ellipse cx="380.439" cy="12.9628" rx="0.593543" ry="0.59351" fill="white"/>
<circle cx="469.465" cy="12.9628" r="0.59351" fill="white"/>
<ellipse cx="558.491" cy="12.9628" rx="0.593445" ry="0.59351" fill="white"/>
<ellipse cx="647.518" cy="12.9628" rx="0.593559" ry="0.59351" fill="white"/>
<ellipse cx="736.544" cy="12.9628" rx="0.593527" ry="0.59351" fill="white"/>
<ellipse cx="825.57" cy="12.9628" rx="0.593527" ry="0.59351" fill="white"/>
<ellipse cx="914.597" cy="12.9628" rx="0.593494" ry="0.59351" fill="white"/>
<ellipse cx="107.425" cy="72.3137" rx="0.593509" ry="0.59351" fill="white"/>
<circle cx="196.451" cy="72.3137" r="0.59351" fill="white"/>
<ellipse cx="285.478" cy="72.3137" rx="0.593502" ry="0.59351" fill="white"/>
<ellipse cx="374.504" cy="72.3137" rx="0.593478" ry="0.59351" fill="white"/>
<circle cx="463.53" cy="72.3137" r="0.59351" fill="white"/>
<ellipse cx="552.556" cy="72.3137" rx="0.593445" ry="0.59351" fill="white"/>
<ellipse cx="641.583" cy="72.3137" rx="0.593527" ry="0.59351" fill="white"/>
<ellipse cx="730.609" cy="72.3137" rx="0.593494" ry="0.59351" fill="white"/>
<ellipse cx="819.635" cy="72.3137" rx="0.593494" ry="0.59351" fill="white"/>
<ellipse cx="908.661" cy="72.3137" rx="0.593527" ry="0.59351" fill="white"/>
<ellipse cx="148.971" cy="131.665" rx="0.593514" ry="0.59351" fill="white"/>
<circle cx="237.997" cy="131.665" r="0.59351" fill="white"/>
<ellipse cx="327.023" cy="131.665" rx="0.593535" ry="0.59351" fill="white"/>
<circle cx="416.049" cy="131.665" r="0.59351" fill="white"/>
<ellipse cx="505.076" cy="131.665" rx="0.593494" ry="0.59351" fill="white"/>
<ellipse cx="594.102" cy="131.665" rx="0.593559" ry="0.59351" fill="white"/>
<ellipse cx="683.128" cy="131.665" rx="0.593527" ry="0.59351" fill="white"/>
<ellipse cx="772.154" cy="131.665" rx="0.593527" ry="0.59351" fill="white"/>
<ellipse cx="861.181" cy="131.665" rx="0.593494" ry="0.59351" fill="white"/>
<ellipse cx="950.207" cy="131.665" rx="0.593722" ry="0.59351" fill="white"/>
<circle cx="131.165" cy="191.016" r="0.59351" fill="white"/>
<circle cx="220.192" cy="191.016" r="0.59351" fill="white"/>
<ellipse cx="309.218" cy="191.016" rx="0.593486" ry="0.59351" fill="white"/>
<ellipse cx="398.244" cy="191.016" rx="0.593494" ry="0.59351" fill="white"/>
<circle cx="487.27" cy="191.016" r="0.59351" fill="white"/>
<circle cx="576.297" cy="191.016" r="0.59351" fill="white"/>
<ellipse cx="665.323" cy="191.016" rx="0.593461" ry="0.59351" fill="white"/>
<ellipse cx="754.349" cy="191.016" rx="0.593494" ry="0.59351" fill="white"/>
<ellipse cx="843.376" cy="191.016" rx="0.593527" ry="0.59351" fill="white"/>
<ellipse cx="932.402" cy="191.016" rx="0.593527" ry="0.59351" fill="white"/>
<ellipse cx="148.971" cy="250.366" rx="0.593514" ry="0.59351" fill="white"/>
<circle cx="237.997" cy="250.366" r="0.59351" fill="white"/>
<ellipse cx="327.023" cy="250.366" rx="0.593535" ry="0.59351" fill="white"/>
<circle cx="416.049" cy="250.366" r="0.59351" fill="white"/>
<ellipse cx="505.076" cy="250.366" rx="0.593494" ry="0.59351" fill="white"/>
<ellipse cx="594.102" cy="250.366" rx="0.593559" ry="0.59351" fill="white"/>
<ellipse cx="683.128" cy="250.366" rx="0.593527" ry="0.59351" fill="white"/>
<ellipse cx="772.154" cy="250.366" rx="0.593527" ry="0.59351" fill="white"/>
<ellipse cx="861.181" cy="250.366" rx="0.593494" ry="0.59351" fill="white"/>
<ellipse cx="950.207" cy="250.366" rx="0.593722" ry="0.59351" fill="white"/>
<circle cx="119.295" cy="310.904" r="0.59351" fill="white"/>
<ellipse cx="208.321" cy="310.904" rx="0.593522" ry="0.59351" fill="white"/>
<circle cx="297.348" cy="310.904" r="0.59351" fill="white"/>
<ellipse cx="386.374" cy="310.904" rx="0.593494" ry="0.59351" fill="white"/>
<ellipse cx="475.4" cy="310.904" rx="0.593527" ry="0.59351" fill="white"/>
<circle cx="564.427" cy="310.904" r="0.59351" fill="white"/>
<ellipse cx="653.453" cy="310.904" rx="0.593527" ry="0.59351" fill="white"/>
<ellipse cx="742.479" cy="310.904" rx="0.593494" ry="0.59351" fill="white"/>
<ellipse cx="831.505" cy="310.904" rx="0.593527" ry="0.59351" fill="white"/>
<ellipse cx="920.532" cy="310.904" rx="0.593527" ry="0.59351" fill="white"/>
<circle cx="154.906" cy="370.255" r="0.59351" fill="white"/>
<circle cx="243.932" cy="370.255" r="0.59351" fill="white"/>
<ellipse cx="332.958" cy="370.255" rx="0.593502" ry="0.59351" fill="white"/>
<ellipse cx="421.985" cy="370.255" rx="0.593527" ry="0.59351" fill="white"/>
<circle cx="511.011" cy="370.255" r="0.59351" fill="white"/>
<circle cx="600.037" cy="370.255" r="0.59351" fill="white"/>
<ellipse cx="689.063" cy="370.255" rx="0.593494" ry="0.59351" fill="white"/>
<ellipse cx="778.09" cy="370.255" rx="0.593527" ry="0.59351" fill="white"/>
<ellipse cx="867.116" cy="370.255" rx="0.593527" ry="0.59351" fill="white"/>
<ellipse cx="143.036" cy="429.606" rx="0.593502" ry="0.59351" fill="white"/>
<ellipse cx="232.062" cy="429.606" rx="0.593518" ry="0.59351" fill="white"/>
<ellipse cx="321.088" cy="429.606" rx="0.593478" ry="0.59351" fill="white"/>
<circle cx="410.114" cy="429.606" r="0.59351" fill="white"/>
<circle cx="499.141" cy="429.606" r="0.59351" fill="white"/>
<circle cx="588.167" cy="429.606" r="0.59351" fill="white"/>
<ellipse cx="677.193" cy="429.606" rx="0.593559" ry="0.59351" fill="white"/>
<ellipse cx="766.22" cy="429.606" rx="0.593494" ry="0.59351" fill="white"/>
<ellipse cx="855.246" cy="429.606" rx="0.593527" ry="0.59351" fill="white"/>
<ellipse cx="944.272" cy="429.606" rx="0.593396" ry="0.59351" fill="white"/>
<ellipse cx="178.646" cy="488.956" rx="0.59351" ry="0.593494" fill="white"/>
<ellipse cx="267.672" cy="488.956" rx="0.593502" ry="0.593494" fill="white"/>
<ellipse cx="356.699" cy="488.956" rx="0.593535" ry="0.593494" fill="white"/>
<ellipse cx="445.725" cy="488.956" rx="0.59351" ry="0.593494" fill="white"/>
<ellipse cx="534.751" cy="488.956" rx="0.59351" ry="0.593494" fill="white"/>
<ellipse cx="623.778" cy="488.956" rx="0.593559" ry="0.593494" fill="white"/>
<circle cx="712.804" cy="488.956" r="0.593494" fill="white"/>
<ellipse cx="801.83" cy="488.956" rx="0.593527" ry="0.593494" fill="white"/>
<circle cx="890.856" cy="488.956" r="0.593494" fill="white"/>
<ellipse cx="979.882" cy="487.77" rx="0.593364" ry="0.593494" fill="white"/>
<ellipse cx="131.165" cy="548.307" rx="0.59351" ry="0.593527" fill="white"/>
<ellipse cx="220.192" cy="548.307" rx="0.59351" ry="0.593527" fill="white"/>
<ellipse cx="309.218" cy="548.307" rx="0.593486" ry="0.593527" fill="white"/>
<ellipse cx="398.244" cy="548.307" rx="0.593494" ry="0.593527" fill="white"/>
<ellipse cx="487.27" cy="548.307" rx="0.59351" ry="0.593527" fill="white"/>
<ellipse cx="576.297" cy="548.307" rx="0.59351" ry="0.593527" fill="white"/>
<ellipse cx="665.323" cy="548.307" rx="0.593461" ry="0.593527" fill="white"/>
<ellipse cx="754.349" cy="548.307" rx="0.593494" ry="0.593527" fill="white"/>
<circle cx="843.376" cy="548.307" r="0.593527" fill="white"/>
<circle cx="932.402" cy="548.307" r="0.593527" fill="white"/>
<ellipse cx="148.971" cy="607.658" rx="0.593514" ry="0.593527" fill="white"/>
<ellipse cx="237.997" cy="607.658" rx="0.59351" ry="0.593527" fill="white"/>
<ellipse cx="327.023" cy="607.658" rx="0.593535" ry="0.593527" fill="white"/>
<ellipse cx="416.049" cy="607.658" rx="0.59351" ry="0.593527" fill="white"/>
<ellipse cx="505.076" cy="607.658" rx="0.593494" ry="0.593527" fill="white"/>
<ellipse cx="594.102" cy="607.658" rx="0.593559" ry="0.593527" fill="white"/>
<circle cx="683.128" cy="607.658" r="0.593527" fill="white"/>
<circle cx="772.154" cy="607.658" r="0.593527" fill="white"/>
<ellipse cx="861.181" cy="607.658" rx="0.593494" ry="0.593527" fill="white"/>
<ellipse cx="950.207" cy="607.658" rx="0.593722" ry="0.593527" fill="white"/>
<ellipse cx="190.516" cy="672.944" rx="0.59351" ry="0.593494" fill="white"/>
<ellipse cx="279.542" cy="672.944" rx="0.59351" ry="0.593494" fill="white"/>
<ellipse cx="368.569" cy="672.944" rx="0.593527" ry="0.593494" fill="white"/>
<ellipse cx="457.595" cy="672.944" rx="0.59351" ry="0.593494" fill="white"/>
<ellipse cx="546.621" cy="672.944" rx="0.59351" ry="0.593494" fill="white"/>
<circle cx="635.648" cy="672.944" r="0.593494" fill="white"/>
<ellipse cx="724.674" cy="672.944" rx="0.593527" ry="0.593494" fill="white"/>
<ellipse cx="813.7" cy="672.944" rx="0.593527" ry="0.593494" fill="white"/>
<circle cx="902.726" cy="672.944" r="0.593494" fill="white"/>
<circle cx="991.753" cy="671.757" r="0.593527" fill="white"/>
<ellipse cx="154.906" cy="738.23" rx="0.59351" ry="0.593494" fill="white"/>
<ellipse cx="243.932" cy="738.23" rx="0.59351" ry="0.593494" fill="white"/>
<ellipse cx="332.958" cy="738.23" rx="0.593502" ry="0.593494" fill="white"/>
<ellipse cx="421.985" cy="738.23" rx="0.593527" ry="0.593494" fill="white"/>
<ellipse cx="511.011" cy="738.23" rx="0.59351" ry="0.593494" fill="white"/>
<ellipse cx="600.037" cy="738.23" rx="0.59351" ry="0.593494" fill="white"/>
<circle cx="689.063" cy="738.23" r="0.593494" fill="white"/>
<ellipse cx="778.09" cy="738.23" rx="0.593527" ry="0.593494" fill="white"/>
<ellipse cx="867.116" cy="738.23" rx="0.593527" ry="0.593494" fill="white"/>
<ellipse cx="956.142" cy="738.23" rx="0.593527" ry="0.593494" fill="white"/>
<circle cx="202.386" cy="802.329" r="0.593494" fill="white"/>
<ellipse cx="291.413" cy="802.329" rx="0.59351" ry="0.593494" fill="white"/>
<ellipse cx="380.439" cy="802.329" rx="0.593543" ry="0.593494" fill="white"/>
<ellipse cx="469.465" cy="802.329" rx="0.59351" ry="0.593494" fill="white"/>
<ellipse cx="558.491" cy="802.329" rx="0.593445" ry="0.593494" fill="white"/>
<ellipse cx="647.518" cy="802.329" rx="0.593559" ry="0.593494" fill="white"/>
<ellipse cx="736.544" cy="802.329" rx="0.593527" ry="0.593494" fill="white"/>
<ellipse cx="825.57" cy="802.329" rx="0.593527" ry="0.593494" fill="white"/>
<circle cx="914.597" cy="802.329" r="0.593494" fill="white"/>
<ellipse cx="166.776" cy="867.615" rx="0.59351" ry="0.593527" fill="white"/>
<ellipse cx="255.802" cy="867.615" rx="0.59351" ry="0.593527" fill="white"/>
<ellipse cx="344.828" cy="867.615" rx="0.593502" ry="0.593527" fill="white"/>
<ellipse cx="433.855" cy="867.615" rx="0.59351" ry="0.593527" fill="white"/>
<ellipse cx="522.881" cy="867.615" rx="0.59351" ry="0.593527" fill="white"/>
<ellipse cx="611.907" cy="867.615" rx="0.593445" ry="0.593527" fill="white"/>
<ellipse cx="700.934" cy="867.615" rx="0.593494" ry="0.593527" fill="white"/>
<circle cx="789.96" cy="867.615" r="0.593527" fill="white"/>
<circle cx="878.986" cy="867.615" r="0.593527" fill="white"/>
<circle cx="968.012" cy="867.615" r="0.593527" fill="white"/>
<ellipse cx="131.165" cy="932.901" rx="0.59351" ry="0.593527" fill="white"/>
<ellipse cx="220.192" cy="932.901" rx="0.59351" ry="0.593527" fill="white"/>
<ellipse cx="309.218" cy="932.901" rx="0.593486" ry="0.593527" fill="white"/>
<ellipse cx="398.244" cy="932.901" rx="0.593494" ry="0.593527" fill="white"/>
<ellipse cx="487.27" cy="932.901" rx="0.59351" ry="0.593527" fill="white"/>
<ellipse cx="576.297" cy="932.901" rx="0.59351" ry="0.593527" fill="white"/>
<ellipse cx="665.323" cy="932.901" rx="0.593461" ry="0.593527" fill="white"/>
<ellipse cx="754.349" cy="932.901" rx="0.593494" ry="0.593527" fill="white"/>
<circle cx="843.376" cy="932.901" r="0.593527" fill="white"/>
<circle cx="932.402" cy="932.901" r="0.593527" fill="white"/>
<ellipse cx="166.776" cy="998.187" rx="0.59351" ry="0.593494" fill="white"/>
<ellipse cx="255.802" cy="998.187" rx="0.59351" ry="0.593494" fill="white"/>
<ellipse cx="344.828" cy="998.187" rx="0.593502" ry="0.593494" fill="white"/>
<ellipse cx="433.855" cy="998.187" rx="0.59351" ry="0.593494" fill="white"/>
<ellipse cx="522.881" cy="998.187" rx="0.59351" ry="0.593494" fill="white"/>
<ellipse cx="611.907" cy="998.187" rx="0.593445" ry="0.593494" fill="white"/>
<circle cx="700.934" cy="998.187" r="0.593494" fill="white"/>
<ellipse cx="789.96" cy="998.187" rx="0.593527" ry="0.593494" fill="white"/>
<ellipse cx="878.986" cy="998.187" rx="0.593527" ry="0.593494" fill="white"/>
<ellipse cx="143.036" cy="1057.54" rx="0.593502" ry="0.593494" fill="white"/>
<ellipse cx="232.062" cy="1057.54" rx="0.593518" ry="0.593494" fill="white"/>
<ellipse cx="321.088" cy="1057.54" rx="0.593478" ry="0.593494" fill="white"/>
<ellipse cx="410.114" cy="1057.54" rx="0.59351" ry="0.593494" fill="white"/>
<ellipse cx="499.141" cy="1057.54" rx="0.59351" ry="0.593494" fill="white"/>
<ellipse cx="588.167" cy="1057.54" rx="0.59351" ry="0.593494" fill="white"/>
<ellipse cx="677.193" cy="1057.54" rx="0.593559" ry="0.593494" fill="white"/>
<circle cx="766.22" cy="1057.54" r="0.593494" fill="white"/>
<ellipse cx="855.246" cy="1057.54" rx="0.593527" ry="0.593494" fill="white"/>
<ellipse cx="855.246" cy="1057.54" rx="0.593527" ry="0.593494" fill="white"/>
<ellipse cx="968.012" cy="998.187" rx="0.593527" ry="0.593494" fill="white"/>
<ellipse cx="50.4483" cy="36.7032" rx="0.593511" ry="0.59351" fill="white"/>
<ellipse cx="139.475" cy="36.7032" rx="0.593514" ry="0.59351" fill="white"/>
<ellipse cx="228.501" cy="36.7032" rx="0.593494" ry="0.59351" fill="white"/>
<ellipse cx="317.527" cy="36.7032" rx="0.593543" ry="0.59351" fill="white"/>
<circle cx="406.553" cy="36.7032" r="0.59351" fill="white"/>
<ellipse cx="495.58" cy="36.7032" rx="0.593494" ry="0.59351" fill="white"/>
<ellipse cx="584.606" cy="36.7032" rx="0.593527" ry="0.59351" fill="white"/>
<ellipse cx="673.632" cy="36.7032" rx="0.593559" ry="0.59351" fill="white"/>
<ellipse cx="762.658" cy="36.7032" rx="0.593494" ry="0.59351" fill="white"/>
<ellipse cx="851.685" cy="36.7032" rx="0.593527" ry="0.59351" fill="white"/>
<ellipse cx="44.5132" cy="96.0541" rx="0.593508" ry="0.59351" fill="white"/>
<ellipse cx="133.539" cy="96.0541" rx="0.593508" ry="0.59351" fill="white"/>
<ellipse cx="222.566" cy="96.0541" rx="0.593527" ry="0.59351" fill="white"/>
<ellipse cx="311.592" cy="96.0541" rx="0.593486" ry="0.59351" fill="white"/>
<circle cx="400.618" cy="96.0541" r="0.59351" fill="white"/>
<circle cx="489.645" cy="96.0541" r="0.59351" fill="white"/>
<ellipse cx="578.671" cy="96.0541" rx="0.593559" ry="0.59351" fill="white"/>
<ellipse cx="667.697" cy="96.0541" rx="0.593527" ry="0.59351" fill="white"/>
<ellipse cx="756.723" cy="96.0541" rx="0.593494" ry="0.59351" fill="white"/>
<ellipse cx="845.75" cy="96.0541" rx="0.593494" ry="0.59351" fill="white"/>
<ellipse cx="86.0588" cy="155.405" rx="0.593509" ry="0.59351" fill="white"/>
<circle cx="175.085" cy="155.405" r="0.59351" fill="white"/>
<circle cx="264.111" cy="155.405" r="0.59351" fill="white"/>
<ellipse cx="353.137" cy="155.405" rx="0.593486" ry="0.59351" fill="white"/>
<ellipse cx="442.164" cy="155.405" rx="0.593494" ry="0.59351" fill="white"/>
<ellipse cx="531.19" cy="155.405" rx="0.593527" ry="0.59351" fill="white"/>
<ellipse cx="620.216" cy="155.405" rx="0.593559" ry="0.59351" fill="white"/>
<ellipse cx="709.243" cy="155.405" rx="0.593494" ry="0.59351" fill="white"/>
<ellipse cx="798.269" cy="155.405" rx="0.593527" ry="0.59351" fill="white"/>
<ellipse cx="887.295" cy="155.405" rx="0.593494" ry="0.59351" fill="white"/>
<ellipse cx="68.2535" cy="214.756" rx="0.593509" ry="0.59351" fill="white"/>
<circle cx="157.28" cy="214.756" r="0.59351" fill="white"/>
<circle cx="246.306" cy="214.756" r="0.59351" fill="white"/>
<ellipse cx="335.332" cy="214.756" rx="0.593502" ry="0.59351" fill="white"/>
<circle cx="424.359" cy="214.756" r="0.59351" fill="white"/>
<ellipse cx="513.385" cy="214.756" rx="0.593559" ry="0.59351" fill="white"/>
<circle cx="602.411" cy="214.756" r="0.59351" fill="white"/>
<ellipse cx="691.438" cy="214.756" rx="0.593527" ry="0.59351" fill="white"/>
<ellipse cx="780.464" cy="214.756" rx="0.593494" ry="0.59351" fill="white"/>
<ellipse cx="869.49" cy="214.756" rx="0.593494" ry="0.59351" fill="white"/>
<ellipse cx="86.0588" cy="274.107" rx="0.593509" ry="0.59351" fill="white"/>
<circle cx="175.085" cy="274.107" r="0.59351" fill="white"/>
<circle cx="264.111" cy="274.107" r="0.59351" fill="white"/>
<ellipse cx="353.137" cy="274.107" rx="0.593486" ry="0.59351" fill="white"/>
<ellipse cx="442.164" cy="274.107" rx="0.593494" ry="0.59351" fill="white"/>
<ellipse cx="531.19" cy="274.107" rx="0.593527" ry="0.59351" fill="white"/>
<ellipse cx="620.216" cy="274.107" rx="0.593559" ry="0.59351" fill="white"/>
<ellipse cx="709.243" cy="274.107" rx="0.593494" ry="0.59351" fill="white"/>
<ellipse cx="798.269" cy="274.107" rx="0.593527" ry="0.59351" fill="white"/>
<ellipse cx="887.295" cy="274.107" rx="0.593494" ry="0.59351" fill="white"/>
<ellipse cx="56.3834" cy="334.644" rx="0.593508" ry="0.59351" fill="white"/>
<ellipse cx="145.41" cy="334.644" rx="0.5935" ry="0.59351" fill="white"/>
<circle cx="234.436" cy="334.644" r="0.59351" fill="white"/>
<circle cx="323.462" cy="334.644" r="0.59351" fill="white"/>
<circle cx="412.488" cy="334.644" r="0.59351" fill="white"/>
<circle cx="501.515" cy="334.644" r="0.59351" fill="white"/>
<ellipse cx="590.541" cy="334.644" rx="0.593445" ry="0.59351" fill="white"/>
<ellipse cx="679.567" cy="334.644" rx="0.593494" ry="0.59351" fill="white"/>
<ellipse cx="768.594" cy="334.644" rx="0.593494" ry="0.59351" fill="white"/>
<ellipse cx="857.62" cy="334.644" rx="0.593527" ry="0.59351" fill="white"/>
<ellipse cx="91.9938" cy="393.995" rx="0.593509" ry="0.59351" fill="white"/>
<circle cx="181.02" cy="393.995" r="0.59351" fill="white"/>
<circle cx="270.046" cy="393.995" r="0.59351" fill="white"/>
<circle cx="359.073" cy="393.995" r="0.59351" fill="white"/>
<circle cx="448.099" cy="393.995" r="0.59351" fill="white"/>
<ellipse cx="537.125" cy="393.995" rx="0.593445" ry="0.59351" fill="white"/>
<circle cx="626.151" cy="393.995" r="0.59351" fill="white"/>
<ellipse cx="715.178" cy="393.995" rx="0.593494" ry="0.59351" fill="white"/>
<ellipse cx="804.204" cy="393.995" rx="0.593527" ry="0.59351" fill="white"/>
<ellipse cx="80.1237" cy="453.346" rx="0.593509" ry="0.593494" fill="white"/>
<ellipse cx="169.15" cy="453.346" rx="0.59351" ry="0.593494" fill="white"/>
<ellipse cx="258.176" cy="453.346" rx="0.59351" ry="0.593494" fill="white"/>
<ellipse cx="347.203" cy="453.346" rx="0.593486" ry="0.593494" fill="white"/>
<ellipse cx="436.229" cy="453.346" rx="0.59351" ry="0.593494" fill="white"/>
<ellipse cx="525.255" cy="453.346" rx="0.593559" ry="0.593494" fill="white"/>
<ellipse cx="614.281" cy="453.346" rx="0.59351" ry="0.593494" fill="white"/>
<circle cx="703.308" cy="453.346" r="0.593494" fill="white"/>
<circle cx="792.334" cy="453.346" r="0.593494" fill="white"/>
<ellipse cx="881.36" cy="453.346" rx="0.593527" ry="0.593494" fill="white"/>
<ellipse cx="115.734" cy="512.697" rx="0.593509" ry="0.593527" fill="white"/>
<ellipse cx="204.76" cy="512.697" rx="0.59351" ry="0.593527" fill="white"/>
<ellipse cx="293.787" cy="512.697" rx="0.59351" ry="0.593527" fill="white"/>
<ellipse cx="382.813" cy="512.697" rx="0.59351" ry="0.593527" fill="white"/>
<ellipse cx="471.839" cy="512.697" rx="0.59351" ry="0.593527" fill="white"/>
<ellipse cx="560.865" cy="512.697" rx="0.59351" ry="0.593527" fill="white"/>
<ellipse cx="649.892" cy="512.697" rx="0.593429" ry="0.593527" fill="white"/>
<ellipse cx="738.918" cy="512.697" rx="0.593494" ry="0.593527" fill="white"/>
<circle cx="827.944" cy="512.697" r="0.593527" fill="white"/>
<ellipse cx="916.971" cy="512.697" rx="0.593494" ry="0.593527" fill="white"/>
<ellipse cx="68.2535" cy="572.048" rx="0.593509" ry="0.593494" fill="white"/>
<ellipse cx="157.28" cy="572.048" rx="0.59351" ry="0.593494" fill="white"/>
<ellipse cx="246.306" cy="572.048" rx="0.59351" ry="0.593494" fill="white"/>
<ellipse cx="335.332" cy="572.048" rx="0.593502" ry="0.593494" fill="white"/>
<ellipse cx="424.359" cy="572.048" rx="0.59351" ry="0.593494" fill="white"/>
<ellipse cx="513.385" cy="572.048" rx="0.593559" ry="0.593494" fill="white"/>
<ellipse cx="602.411" cy="572.048" rx="0.59351" ry="0.593494" fill="white"/>
<ellipse cx="691.438" cy="572.048" rx="0.593527" ry="0.593494" fill="white"/>
<circle cx="780.464" cy="572.048" r="0.593494" fill="white"/>
<circle cx="869.49" cy="572.048" r="0.593494" fill="white"/>
<ellipse cx="86.0588" cy="631.398" rx="0.593509" ry="0.593527" fill="white"/>
<ellipse cx="175.085" cy="631.398" rx="0.59351" ry="0.593527" fill="white"/>
<ellipse cx="264.111" cy="631.398" rx="0.59351" ry="0.593527" fill="white"/>
<ellipse cx="353.137" cy="631.398" rx="0.593486" ry="0.593527" fill="white"/>
<ellipse cx="442.164" cy="631.398" rx="0.593494" ry="0.593527" fill="white"/>
<circle cx="531.19" cy="631.398" r="0.593527" fill="white"/>
<ellipse cx="620.216" cy="631.398" rx="0.593559" ry="0.593527" fill="white"/>
<ellipse cx="709.243" cy="631.398" rx="0.593494" ry="0.593527" fill="white"/>
<circle cx="798.269" cy="631.398" r="0.593527" fill="white"/>
<ellipse cx="887.295" cy="631.398" rx="0.593494" ry="0.593527" fill="white"/>
<ellipse cx="127.604" cy="696.684" rx="0.593508" ry="0.593494" fill="white"/>
<circle cx="216.631" cy="696.684" r="0.593494" fill="white"/>
<ellipse cx="305.657" cy="696.684" rx="0.593518" ry="0.593494" fill="white"/>
<ellipse cx="394.683" cy="696.684" rx="0.59351" ry="0.593494" fill="white"/>
<circle cx="483.71" cy="696.684" r="0.593494" fill="white"/>
<ellipse cx="572.736" cy="696.684" rx="0.59351" ry="0.593494" fill="white"/>
<ellipse cx="661.762" cy="696.684" rx="0.593559" ry="0.593494" fill="white"/>
<ellipse cx="750.788" cy="696.684" rx="0.593527" ry="0.593494" fill="white"/>
<circle cx="839.815" cy="696.684" r="0.593494" fill="white"/>
<circle cx="928.841" cy="696.684" r="0.593494" fill="white"/>
<ellipse cx="91.9938" cy="761.97" rx="0.593509" ry="0.593527" fill="white"/>
<ellipse cx="181.02" cy="761.97" rx="0.59351" ry="0.593527" fill="white"/>
<ellipse cx="270.046" cy="761.97" rx="0.59351" ry="0.593527" fill="white"/>
<ellipse cx="359.073" cy="761.97" rx="0.59351" ry="0.593527" fill="white"/>
<ellipse cx="448.099" cy="761.97" rx="0.59351" ry="0.593527" fill="white"/>
<ellipse cx="537.125" cy="761.97" rx="0.593445" ry="0.593527" fill="white"/>
<ellipse cx="626.151" cy="761.97" rx="0.59351" ry="0.593527" fill="white"/>
<ellipse cx="715.178" cy="761.97" rx="0.593494" ry="0.593527" fill="white"/>
<circle cx="804.204" cy="761.97" r="0.593527" fill="white"/>
<ellipse cx="893.23" cy="761.97" rx="0.593494" ry="0.593527" fill="white"/>
<ellipse cx="139.475" cy="826.069" rx="0.593514" ry="0.593461" fill="white"/>
<ellipse cx="228.501" cy="826.069" rx="0.593494" ry="0.593461" fill="white"/>
<ellipse cx="317.527" cy="826.069" rx="0.593543" ry="0.593461" fill="white"/>
<ellipse cx="406.553" cy="826.069" rx="0.59351" ry="0.593461" fill="white"/>
<ellipse cx="495.58" cy="826.069" rx="0.593494" ry="0.593461" fill="white"/>
<ellipse cx="584.606" cy="826.069" rx="0.593527" ry="0.593461" fill="white"/>
<ellipse cx="673.632" cy="826.069" rx="0.593559" ry="0.593461" fill="white"/>
<ellipse cx="762.658" cy="826.069" rx="0.593494" ry="0.593461" fill="white"/>
<ellipse cx="851.685" cy="826.069" rx="0.593527" ry="0.593461" fill="white"/>
<ellipse cx="103.864" cy="891.355" rx="0.593508" ry="0.593527" fill="white"/>
<ellipse cx="192.89" cy="891.355" rx="0.593494" ry="0.593527" fill="white"/>
<ellipse cx="281.917" cy="891.355" rx="0.59351" ry="0.593527" fill="white"/>
<ellipse cx="370.943" cy="891.355" rx="0.593543" ry="0.593527" fill="white"/>
<ellipse cx="459.969" cy="891.355" rx="0.59351" ry="0.593527" fill="white"/>
<ellipse cx="548.995" cy="891.355" rx="0.59351" ry="0.593527" fill="white"/>
<circle cx="638.022" cy="891.355" r="0.593527" fill="white"/>
<ellipse cx="727.048" cy="891.355" rx="0.593494" ry="0.593527" fill="white"/>
<ellipse cx="816.074" cy="891.355" rx="0.593494" ry="0.593527" fill="white"/>
<circle cx="905.101" cy="891.355" r="0.593527" fill="white"/>
<ellipse cx="68.2535" cy="956.641" rx="0.593509" ry="0.593494" fill="white"/>
<ellipse cx="157.28" cy="956.641" rx="0.59351" ry="0.593494" fill="white"/>
<ellipse cx="246.306" cy="956.641" rx="0.59351" ry="0.593494" fill="white"/>
<ellipse cx="335.332" cy="956.641" rx="0.593502" ry="0.593494" fill="white"/>
<ellipse cx="424.359" cy="956.641" rx="0.59351" ry="0.593494" fill="white"/>
<ellipse cx="513.385" cy="956.641" rx="0.593559" ry="0.593494" fill="white"/>
<ellipse cx="602.411" cy="956.641" rx="0.59351" ry="0.593494" fill="white"/>
<ellipse cx="691.438" cy="956.641" rx="0.593527" ry="0.593494" fill="white"/>
<circle cx="780.464" cy="956.641" r="0.593494" fill="white"/>
<circle cx="869.49" cy="956.641" r="0.593494" fill="white"/>
<ellipse cx="103.864" cy="1021.93" rx="0.593508" ry="0.593429" fill="white"/>
<ellipse cx="192.89" cy="1021.93" rx="0.593494" ry="0.593429" fill="white"/>
<ellipse cx="281.917" cy="1021.93" rx="0.59351" ry="0.593429" fill="white"/>
<ellipse cx="370.943" cy="1021.93" rx="0.593543" ry="0.593429" fill="white"/>
<ellipse cx="459.969" cy="1021.93" rx="0.59351" ry="0.593429" fill="white"/>
<ellipse cx="548.995" cy="1021.93" rx="0.59351" ry="0.593429" fill="white"/>
<ellipse cx="638.022" cy="1021.93" rx="0.593527" ry="0.593429" fill="white"/>
<ellipse cx="727.048" cy="1021.93" rx="0.593494" ry="0.593429" fill="white"/>
<ellipse cx="816.074" cy="1021.93" rx="0.593494" ry="0.593429" fill="white"/>
<ellipse cx="905.101" cy="1021.93" rx="0.593527" ry="0.593429" fill="white"/>
<ellipse cx="124.043" cy="31.3617" rx="1.18702" ry="1.18701" fill="white"/>
<ellipse cx="302.096" cy="37.2968" rx="1.18699" ry="1.18702" fill="white"/>
<ellipse cx="480.148" cy="31.3617" rx="1.18702" ry="1.18701" fill="white"/>
<ellipse cx="658.201" cy="25.4266" rx="1.18699" ry="1.18701" fill="white"/>
<ellipse cx="836.254" cy="31.3617" rx="1.18702" ry="1.18701" fill="white"/>
<ellipse cx="1014.31" cy="37.2968" rx="1.18712" ry="1.18702" fill="white"/>
<ellipse cx="88.4329" cy="150.063" rx="1.18702" ry="1.18702" fill="white"/>
<ellipse cx="266.485" cy="155.998" rx="1.18702" ry="1.18701" fill="white"/>
<circle cx="444.538" cy="150.063" r="1.18702" fill="white"/>
<ellipse cx="622.59" cy="144.128" rx="1.18697" ry="1.18701" fill="white"/>
<circle cx="800.643" cy="150.063" r="1.18702" fill="white"/>
<ellipse cx="978.696" cy="155.998" rx="1.18689" ry="1.18701" fill="white"/>
<ellipse cx="159.654" cy="268.765" rx="1.18701" ry="1.18702" fill="white"/>
<ellipse cx="337.706" cy="274.7" rx="1.18699" ry="1.18702" fill="white"/>
<ellipse cx="515.759" cy="268.765" rx="1.18697" ry="1.18702" fill="white"/>
<circle cx="693.811" cy="262.83" r="1.18702" fill="white"/>
<ellipse cx="871.864" cy="268.765" rx="1.18699" ry="1.18702" fill="white"/>
<circle cx="1049.92" cy="274.7" r="1.18702" fill="white"/>
<ellipse cx="129.978" cy="388.654" rx="1.18702" ry="1.18702" fill="white"/>
<circle cx="308.031" cy="394.589" r="1.18702" fill="white"/>
<circle cx="486.083" cy="388.654" r="1.18702" fill="white"/>
<ellipse cx="664.136" cy="382.718" rx="1.18705" ry="1.187" fill="white"/>
<ellipse cx="842.189" cy="388.654" rx="1.18699" ry="1.18702" fill="white"/>
<circle cx="1020.24" cy="393.402" r="1.18702" fill="white"/>
<ellipse cx="100.303" cy="507.355" rx="1.18702" ry="1.18702" fill="white"/>
<ellipse cx="278.356" cy="513.29" rx="1.18701" ry="1.18702" fill="white"/>
<ellipse cx="456.408" cy="507.355" rx="1.187" ry="1.18702" fill="white"/>
<ellipse cx="634.461" cy="501.42" rx="1.18709" ry="1.18702" fill="white"/>
<circle cx="812.513" cy="507.355" r="1.18702" fill="white"/>
<ellipse cx="990.566" cy="512.104" rx="1.18689" ry="1.18702" fill="white"/>
<ellipse cx="195.264" cy="626.057" rx="1.18703" ry="1.18702" fill="white"/>
<ellipse cx="373.317" cy="631.992" rx="1.18702" ry="1.18705" fill="white"/>
<ellipse cx="551.369" cy="626.057" rx="1.187" ry="1.18702" fill="white"/>
<circle cx="729.422" cy="620.122" r="1.18702" fill="white"/>
<circle cx="907.475" cy="626.057" r="1.18702" fill="white"/>
<ellipse cx="1085.53" cy="630.805" rx="1.18689" ry="1.18702" fill="white"/>
<ellipse cx="84.2783" cy="744.759" rx="1.18702" ry="1.18702" fill="white"/>
<ellipse cx="262.331" cy="750.694" rx="1.18701" ry="1.18702" fill="white"/>
<circle cx="440.383" cy="744.759" r="1.18702" fill="white"/>
<circle cx="618.436" cy="738.824" r="1.18702" fill="white"/>
<circle cx="796.488" cy="744.759" r="1.18702" fill="white"/>
<ellipse cx="974.541" cy="749.507" rx="1.18692" ry="1.18705" fill="white"/>
<ellipse cx="97.929" cy="846.842" rx="1.18701" ry="1.18702" fill="white"/>
<circle cx="275.982" cy="852.777" r="1.18702" fill="white"/>
<circle cx="454.034" cy="846.842" r="1.18702" fill="white"/>
<ellipse cx="632.087" cy="840.907" rx="1.18699" ry="1.18702" fill="white"/>
<circle cx="810.139" cy="846.842" r="1.18702" fill="white"/>
<circle cx="988.192" cy="852.777" r="1.18702" fill="white"/>
<ellipse cx="141.255" cy="973.853" rx="1.18702" ry="1.18702" fill="white"/>
<circle cx="319.308" cy="979.788" r="1.18699" fill="white"/>
<circle cx="497.36" cy="973.853" r="1.18702" fill="white"/>
<ellipse cx="675.413" cy="967.918" rx="1.18696" ry="1.18702" fill="white"/>
<ellipse cx="853.465" cy="973.853" rx="1.18699" ry="1.18702" fill="white"/>
<ellipse cx="1031.52" cy="979.788" rx="1.18705" ry="1.18699" fill="white"/>
<ellipse cx="899.165" cy="1079.5" rx="1.18702" ry="1.18705" fill="white"/>
<ellipse cx="40.9521" cy="96.6476" rx="1.18702" ry="1.18701" fill="white"/>
<ellipse cx="219.005" cy="102.583" rx="1.187" ry="1.18701" fill="white"/>
<ellipse cx="397.057" cy="96.6476" rx="1.187" ry="1.18701" fill="white"/>
<ellipse cx="575.11" cy="90.7125" rx="1.187" ry="1.18702" fill="white"/>
<ellipse cx="753.162" cy="96.6476" rx="1.18702" ry="1.18701" fill="white"/>
<ellipse cx="931.215" cy="102.583" rx="1.18705" ry="1.18701" fill="white"/>
<ellipse cx="5.34162" cy="215.349" rx="1.18702" ry="1.18702" fill="white"/>
<ellipse cx="183.394" cy="221.284" rx="1.18702" ry="1.18704" fill="white"/>
<circle cx="361.447" cy="215.349" r="1.18702" fill="white"/>
<ellipse cx="539.499" cy="209.414" rx="1.18707" ry="1.18702" fill="white"/>
<ellipse cx="717.552" cy="215.349" rx="1.18705" ry="1.18702" fill="white"/>
<ellipse cx="895.604" cy="221.284" rx="1.18699" ry="1.18704" fill="white"/>
<ellipse cx="76.5626" cy="335.238" rx="1.18702" ry="1.18702" fill="white"/>
<ellipse cx="254.615" cy="341.173" rx="1.18701" ry="1.187" fill="white"/>
<circle cx="432.668" cy="335.238" r="1.18702" fill="white"/>
<ellipse cx="610.72" cy="329.303" rx="1.18704" ry="1.18702" fill="white"/>
<ellipse cx="788.773" cy="335.238" rx="1.18699" ry="1.18702" fill="white"/>
<circle cx="966.825" cy="339.986" r="1.18702" fill="white"/>
<ellipse cx="46.8872" cy="453.939" rx="1.18702" ry="1.18699" fill="white"/>
<ellipse cx="224.94" cy="459.875" rx="1.18701" ry="1.18702" fill="white"/>
<ellipse cx="402.992" cy="453.939" rx="1.187" ry="1.18699" fill="white"/>
<ellipse cx="581.045" cy="448.004" rx="1.18707" ry="1.18702" fill="white"/>
<ellipse cx="759.097" cy="453.939" rx="1.18702" ry="1.18699" fill="white"/>
<circle cx="937.15" cy="459.875" r="1.18702" fill="white"/>
<ellipse cx="17.2117" cy="571.454" rx="1.18702" ry="1.18702" fill="white"/>
<ellipse cx="195.264" cy="578.576" rx="1.18703" ry="1.18702" fill="white"/>
<circle cx="373.317" cy="572.641" r="1.18702" fill="white"/>
<ellipse cx="551.369" cy="566.706" rx="1.187" ry="1.18702" fill="white"/>
<circle cx="729.422" cy="572.641" r="1.18702" fill="white"/>
<circle cx="907.475" cy="578.576" r="1.18702" fill="white"/>
<ellipse cx="112.173" cy="691.343" rx="1.18702" ry="1.18699" fill="white"/>
<circle cx="290.226" cy="697.278" r="1.18702" fill="white"/>
<ellipse cx="468.278" cy="691.343" rx="1.18702" ry="1.18699" fill="white"/>
<ellipse cx="646.331" cy="685.408" rx="1.18709" ry="1.18702" fill="white"/>
<ellipse cx="824.383" cy="691.343" rx="1.18705" ry="1.18699" fill="white"/>
<circle cx="1002.44" cy="696.091" r="1.18702" fill="white"/>
<ellipse cx="1.18702" cy="808.858" rx="1.18702" ry="1.18702" fill="white"/>
<ellipse cx="179.24" cy="814.793" rx="1.18702" ry="1.18702" fill="white"/>
<ellipse cx="357.292" cy="808.858" rx="1.18704" ry="1.18702" fill="white"/>
<ellipse cx="535.345" cy="802.923" rx="1.18707" ry="1.18702" fill="white"/>
<circle cx="713.397" cy="808.858" r="1.18702" fill="white"/>
<circle cx="891.45" cy="814.793" r="1.18702" fill="white"/>
<ellipse cx="14.8377" cy="912.128" rx="1.18702" ry="1.18699" fill="white"/>
<ellipse cx="192.89" cy="918.063" rx="1.187" ry="1.18702" fill="white"/>
<ellipse cx="370.943" cy="912.128" rx="1.187" ry="1.18699" fill="white"/>
<ellipse cx="548.995" cy="906.193" rx="1.18707" ry="1.18705" fill="white"/>
<ellipse cx="727.048" cy="912.128" rx="1.18702" ry="1.18699" fill="white"/>
<circle cx="905.1" cy="918.063" r="1.18702" fill="white"/>
<ellipse cx="58.1639" cy="1039.14" rx="1.18701" ry="1.18699" fill="white"/>
<ellipse cx="236.216" cy="1045.07" rx="1.18701" ry="1.18699" fill="white"/>
<ellipse cx="414.269" cy="1039.14" rx="1.18702" ry="1.18699" fill="white"/>
<ellipse cx="592.321" cy="1033.2" rx="1.18697" ry="1.18699" fill="white"/>
<ellipse cx="770.374" cy="1039.14" rx="1.18702" ry="1.18699" fill="white"/>
<ellipse cx="948.427" cy="1045.07" rx="1.18692" ry="1.18699" fill="white"/>
<ellipse cx="911.035" cy="23.6461" rx="0.593507" ry="0.59351" fill="white"/>
<circle cx="1000.06" cy="23.6461" r="0.59351" fill="white"/>
<circle cx="1089.09" cy="23.6461" r="0.59351" fill="white"/>
<ellipse cx="1178.11" cy="23.6461" rx="0.593502" ry="0.59351" fill="white"/>
<circle cx="1267.14" cy="23.6461" r="0.59351" fill="white"/>
<circle cx="1356.17" cy="23.6461" r="0.59351" fill="white"/>
<ellipse cx="1445.19" cy="23.6461" rx="0.593445" ry="0.59351" fill="white"/>
<ellipse cx="1534.22" cy="23.6461" rx="0.593494" ry="0.59351" fill="white"/>
<ellipse cx="1623.25" cy="23.6461" rx="0.593527" ry="0.59351" fill="white"/>
<ellipse cx="1712.27" cy="23.6461" rx="0.593527" ry="0.59351" fill="white"/>
<circle cx="952.581" cy="82.9969" r="0.59351" fill="white"/>
<ellipse cx="1041.61" cy="82.9969" rx="0.593522" ry="0.59351" fill="white"/>
<circle cx="1130.63" cy="82.9969" r="0.59351" fill="white"/>
<ellipse cx="1219.66" cy="82.9969" rx="0.593494" ry="0.59351" fill="white"/>
<ellipse cx="1308.69" cy="82.9969" rx="0.593527" ry="0.59351" fill="white"/>
<circle cx="1397.71" cy="82.9969" r="0.59351" fill="white"/>
<ellipse cx="1486.74" cy="82.9969" rx="0.593527" ry="0.59351" fill="white"/>
<ellipse cx="1575.76" cy="82.9969" rx="0.593494" ry="0.59351" fill="white"/>
<ellipse cx="1664.79" cy="82.9969" rx="0.593527" ry="0.59351" fill="white"/>
<ellipse cx="1753.82" cy="82.9969" rx="0.593527" ry="0.59351" fill="white"/>
<ellipse cx="934.776" cy="142.348" rx="0.593511" ry="0.59351" fill="white"/>
<circle cx="1023.8" cy="142.348" r="0.59351" fill="white"/>
<circle cx="1112.83" cy="142.348" r="0.59351" fill="white"/>
<ellipse cx="1201.85" cy="142.348" rx="0.593527" ry="0.59351" fill="white"/>
<circle cx="1290.88" cy="142.348" r="0.59351" fill="white"/>
<circle cx="1379.91" cy="142.348" r="0.59351" fill="white"/>
<ellipse cx="1468.93" cy="142.348" rx="0.593494" ry="0.59351" fill="white"/>
<ellipse cx="1557.96" cy="142.348" rx="0.593527" ry="0.59351" fill="white"/>
<ellipse cx="1646.99" cy="142.348" rx="0.593527" ry="0.59351" fill="white"/>
<ellipse cx="1736.01" cy="142.348" rx="0.593494" ry="0.59351" fill="white"/>
<circle cx="952.581" cy="201.699" r="0.59351" fill="white"/>
<ellipse cx="1041.61" cy="201.699" rx="0.593522" ry="0.59351" fill="white"/>
<circle cx="1130.63" cy="201.699" r="0.59351" fill="white"/>
<ellipse cx="1219.66" cy="201.699" rx="0.593494" ry="0.59351" fill="white"/>
<ellipse cx="1308.69" cy="201.699" rx="0.593527" ry="0.59351" fill="white"/>
<circle cx="1397.71" cy="201.699" r="0.59351" fill="white"/>
<ellipse cx="1486.74" cy="201.699" rx="0.593527" ry="0.59351" fill="white"/>
<ellipse cx="1575.76" cy="201.699" rx="0.593494" ry="0.59351" fill="white"/>
<ellipse cx="1664.79" cy="201.699" rx="0.593527" ry="0.59351" fill="white"/>
<ellipse cx="1753.82" cy="201.699" rx="0.593527" ry="0.59351" fill="white"/>
<ellipse cx="922.906" cy="262.236" rx="0.593509" ry="0.59351" fill="white"/>
<circle cx="1011.93" cy="262.236" r="0.59351" fill="white"/>
<ellipse cx="1100.96" cy="262.236" rx="0.593502" ry="0.59351" fill="white"/>
<ellipse cx="1189.98" cy="262.236" rx="0.593535" ry="0.59351" fill="white"/>
<circle cx="1279.01" cy="262.236" r="0.59351" fill="white"/>
<circle cx="1368.04" cy="262.236" r="0.59351" fill="white"/>
<ellipse cx="1457.06" cy="262.236" rx="0.593559" ry="0.59351" fill="white"/>
<ellipse cx="1546.09" cy="262.236" rx="0.593494" ry="0.59351" fill="white"/>
<ellipse cx="1635.12" cy="262.236" rx="0.593527" ry="0.59351" fill="white"/>
<ellipse cx="1724.14" cy="262.236" rx="0.593494" ry="0.59351" fill="white"/>
<ellipse cx="958.516" cy="321.587" rx="0.593508" ry="0.59351" fill="white"/>
<circle cx="1047.54" cy="321.587" r="0.59351" fill="white"/>
<ellipse cx="1136.57" cy="321.587" rx="0.593535" ry="0.59351" fill="white"/>
<circle cx="1225.59" cy="321.587" r="0.59351" fill="white"/>
<circle cx="1314.62" cy="321.587" r="0.59351" fill="white"/>
<ellipse cx="1403.65" cy="321.587" rx="0.593559" ry="0.59351" fill="white"/>
<ellipse cx="1492.67" cy="321.587" rx="0.593429" ry="0.59351" fill="white"/>
<ellipse cx="1581.7" cy="321.587" rx="0.593527" ry="0.59351" fill="white"/>
<ellipse cx="1670.73" cy="321.587" rx="0.593494" ry="0.59351" fill="white"/>
<ellipse cx="946.646" cy="380.938" rx="0.593508" ry="0.59351" fill="white"/>
<ellipse cx="1035.67" cy="380.938" rx="0.593494" ry="0.59351" fill="white"/>
<circle cx="1124.7" cy="380.938" r="0.59351" fill="white"/>
<ellipse cx="1213.72" cy="380.938" rx="0.593543" ry="0.59351" fill="white"/>
<circle cx="1302.75" cy="380.938" r="0.59351" fill="white"/>
<ellipse cx="1391.78" cy="380.938" rx="0.593445" ry="0.59351" fill="white"/>
<ellipse cx="1480.8" cy="380.938" rx="0.593559" ry="0.59351" fill="white"/>
<ellipse cx="1569.83" cy="380.938" rx="0.593527" ry="0.59351" fill="white"/>
<ellipse cx="1658.86" cy="380.938" rx="0.593527" ry="0.59351" fill="white"/>
<ellipse cx="1747.88" cy="380.938" rx="0.593494" ry="0.59351" fill="white"/>
<ellipse cx="982.256" cy="440.289" rx="0.593514" ry="0.593494" fill="white"/>
<ellipse cx="1071.28" cy="440.289" rx="0.59351" ry="0.593494" fill="white"/>
<ellipse cx="1160.31" cy="440.289" rx="0.593535" ry="0.593494" fill="white"/>
<ellipse cx="1249.34" cy="440.289" rx="0.59351" ry="0.593494" fill="white"/>
<circle cx="1338.36" cy="440.289" r="0.593494" fill="white"/>
<ellipse cx="1427.39" cy="440.289" rx="0.593559" ry="0.593494" fill="white"/>
<ellipse cx="1516.41" cy="440.289" rx="0.593527" ry="0.593494" fill="white"/>
<ellipse cx="1605.44" cy="440.289" rx="0.593527" ry="0.593494" fill="white"/>
<circle cx="1694.47" cy="440.289" r="0.593494" fill="white"/>
<ellipse cx="1783.49" cy="440.289" rx="0.593722" ry="0.593494" fill="white"/>
<ellipse cx="934.776" cy="499.64" rx="0.593511" ry="0.593494" fill="white"/>
<ellipse cx="1023.8" cy="499.64" rx="0.59351" ry="0.593494" fill="white"/>
<ellipse cx="1112.83" cy="499.64" rx="0.59351" ry="0.593494" fill="white"/>
<ellipse cx="1201.85" cy="499.64" rx="0.593527" ry="0.593494" fill="white"/>
<ellipse cx="1290.88" cy="499.64" rx="0.59351" ry="0.593494" fill="white"/>
<ellipse cx="1379.91" cy="499.64" rx="0.59351" ry="0.593494" fill="white"/>
<circle cx="1468.93" cy="499.64" r="0.593494" fill="white"/>
<ellipse cx="1557.96" cy="499.64" rx="0.593527" ry="0.593494" fill="white"/>
<ellipse cx="1646.99" cy="499.64" rx="0.593527" ry="0.593494" fill="white"/>
<circle cx="1736.01" cy="499.64" r="0.593494" fill="white"/>
<ellipse cx="952.581" cy="558.991" rx="0.59351" ry="0.593494" fill="white"/>
<ellipse cx="1041.61" cy="558.991" rx="0.593522" ry="0.593494" fill="white"/>
<ellipse cx="1130.63" cy="558.991" rx="0.59351" ry="0.593494" fill="white"/>
<circle cx="1219.66" cy="558.991" r="0.593494" fill="white"/>
<ellipse cx="1308.69" cy="558.991" rx="0.593527" ry="0.593494" fill="white"/>
<ellipse cx="1397.71" cy="558.991" rx="0.59351" ry="0.593494" fill="white"/>
<ellipse cx="1486.74" cy="558.991" rx="0.593527" ry="0.593494" fill="white"/>
<circle cx="1575.76" cy="558.991" r="0.593494" fill="white"/>
<ellipse cx="1664.79" cy="558.991" rx="0.593527" ry="0.593494" fill="white"/>
<ellipse cx="1753.82" cy="558.991" rx="0.593527" ry="0.593494" fill="white"/>
<ellipse cx="994.127" cy="624.276" rx="0.593506" ry="0.593494" fill="white"/>
<ellipse cx="1083.15" cy="624.276" rx="0.59351" ry="0.593494" fill="white"/>
<ellipse cx="1172.18" cy="624.276" rx="0.593502" ry="0.593494" fill="white"/>
<ellipse cx="1261.21" cy="624.276" rx="0.59351" ry="0.593494" fill="white"/>
<ellipse cx="1350.23" cy="624.276" rx="0.593559" ry="0.593494" fill="white"/>
<ellipse cx="1439.26" cy="624.276" rx="0.593445" ry="0.593494" fill="white"/>
<ellipse cx="1528.28" cy="624.276" rx="0.593527" ry="0.593494" fill="white"/>
<circle cx="1617.31" cy="624.276" r="0.593494" fill="white"/>
<circle cx="1706.34" cy="624.276" r="0.593494" fill="white"/>
<ellipse cx="1795.36" cy="624.276" rx="0.593527" ry="0.593494" fill="white"/>
<ellipse cx="958.516" cy="689.562" rx="0.593508" ry="0.593527" fill="white"/>
<ellipse cx="1047.54" cy="689.562" rx="0.59351" ry="0.593527" fill="white"/>
<ellipse cx="1136.57" cy="689.562" rx="0.593535" ry="0.593527" fill="white"/>
<ellipse cx="1225.59" cy="689.562" rx="0.59351" ry="0.593527" fill="white"/>
<ellipse cx="1314.62" cy="689.562" rx="0.59351" ry="0.593527" fill="white"/>
<ellipse cx="1403.65" cy="689.562" rx="0.593559" ry="0.593527" fill="white"/>
<ellipse cx="1492.67" cy="689.562" rx="0.593429" ry="0.593527" fill="white"/>
<circle cx="1581.7" cy="689.562" r="0.593527" fill="white"/>
<ellipse cx="1670.73" cy="689.562" rx="0.593494" ry="0.593527" fill="white"/>
<ellipse cx="1759.75" cy="689.562" rx="0.593494" ry="0.593527" fill="white"/>
<ellipse cx="1006" cy="753.661" rx="0.593506" ry="0.593527" fill="white"/>
<ellipse cx="1095.02" cy="753.661" rx="0.593502" ry="0.593527" fill="white"/>
<ellipse cx="1184.05" cy="753.661" rx="0.593535" ry="0.593527" fill="white"/>
<ellipse cx="1273.08" cy="753.661" rx="0.593494" ry="0.593527" fill="white"/>
<ellipse cx="1362.1" cy="753.661" rx="0.593494" ry="0.593527" fill="white"/>
<ellipse cx="1451.13" cy="753.661" rx="0.59351" ry="0.593527" fill="white"/>
<circle cx="1540.15" cy="753.661" r="0.593527" fill="white"/>
<ellipse cx="1629.18" cy="753.661" rx="0.593494" ry="0.593527" fill="white"/>
<circle cx="1718.21" cy="753.661" r="0.593527" fill="white"/>
<ellipse cx="970.386" cy="818.947" rx="0.593508" ry="0.593527" fill="white"/>
<ellipse cx="1059.41" cy="818.947" rx="0.59351" ry="0.593527" fill="white"/>
<ellipse cx="1148.44" cy="818.947" rx="0.593518" ry="0.593527" fill="white"/>
<ellipse cx="1237.46" cy="818.947" rx="0.59351" ry="0.593527" fill="white"/>
<ellipse cx="1326.49" cy="818.947" rx="0.593494" ry="0.593527" fill="white"/>
<ellipse cx="1415.52" cy="818.947" rx="0.593494" ry="0.593527" fill="white"/>
<circle cx="1504.54" cy="818.947" r="0.593527" fill="white"/>
<circle cx="1593.57" cy="818.947" r="0.593527" fill="white"/>
<ellipse cx="1682.6" cy="818.947" rx="0.593494" ry="0.593527" fill="white"/>
<circle cx="1771.62" cy="818.947" r="0.593527" fill="white"/>
<ellipse cx="934.776" cy="884.233" rx="0.593511" ry="0.593494" fill="white"/>
<ellipse cx="1023.8" cy="884.233" rx="0.59351" ry="0.593494" fill="white"/>
<ellipse cx="1112.83" cy="884.233" rx="0.59351" ry="0.593494" fill="white"/>
<ellipse cx="1201.85" cy="884.233" rx="0.593527" ry="0.593494" fill="white"/>
<ellipse cx="1290.88" cy="884.233" rx="0.59351" ry="0.593494" fill="white"/>
<ellipse cx="1379.91" cy="884.233" rx="0.59351" ry="0.593494" fill="white"/>
<circle cx="1468.93" cy="884.233" r="0.593494" fill="white"/>
<ellipse cx="1557.96" cy="884.233" rx="0.593527" ry="0.593494" fill="white"/>
<ellipse cx="1646.99" cy="884.233" rx="0.593527" ry="0.593494" fill="white"/>
<circle cx="1736.01" cy="884.233" r="0.593494" fill="white"/>
<ellipse cx="970.386" cy="949.519" rx="0.593508" ry="0.593494" fill="white"/>
<ellipse cx="1059.41" cy="949.519" rx="0.59351" ry="0.593494" fill="white"/>
<ellipse cx="1148.44" cy="949.519" rx="0.593518" ry="0.593494" fill="white"/>
<ellipse cx="1237.46" cy="949.519" rx="0.59351" ry="0.593494" fill="white"/>
<circle cx="1326.49" cy="949.519" r="0.593494" fill="white"/>
<circle cx="1415.52" cy="949.519" r="0.593494" fill="white"/>
<ellipse cx="1504.54" cy="949.519" rx="0.593527" ry="0.593494" fill="white"/>
<ellipse cx="1593.57" cy="949.519" rx="0.593527" ry="0.593494" fill="white"/>
<circle cx="1682.6" cy="949.519" r="0.593494" fill="white"/>
<ellipse cx="946.646" cy="1008.87" rx="0.593508" ry="0.593494" fill="white"/>
<circle cx="1035.67" cy="1008.87" r="0.593494" fill="white"/>
<ellipse cx="1124.7" cy="1008.87" rx="0.59351" ry="0.593494" fill="white"/>
<ellipse cx="1213.72" cy="1008.87" rx="0.593543" ry="0.593494" fill="white"/>
<ellipse cx="1302.75" cy="1008.87" rx="0.59351" ry="0.593494" fill="white"/>
<ellipse cx="1391.78" cy="1008.87" rx="0.593445" ry="0.593494" fill="white"/>
<ellipse cx="1480.8" cy="1008.87" rx="0.593559" ry="0.593494" fill="white"/>
<ellipse cx="1569.83" cy="1008.87" rx="0.593527" ry="0.593494" fill="white"/>
<ellipse cx="1658.86" cy="1008.87" rx="0.593527" ry="0.593494" fill="white"/>
<ellipse cx="1658.86" cy="1008.87" rx="0.593527" ry="0.593494" fill="white"/>
<ellipse cx="994.127" cy="1068.22" rx="0.593506" ry="0.593494" fill="white"/>
<ellipse cx="1083.15" cy="1068.22" rx="0.59351" ry="0.593494" fill="white"/>
<ellipse cx="1172.18" cy="1068.22" rx="0.593502" ry="0.593494" fill="white"/>
<ellipse cx="1261.21" cy="1068.22" rx="0.59351" ry="0.593494" fill="white"/>
<ellipse cx="1350.23" cy="1068.22" rx="0.593559" ry="0.593494" fill="white"/>
<ellipse cx="1439.26" cy="1068.22" rx="0.593445" ry="0.593494" fill="white"/>
<ellipse cx="1528.28" cy="1068.22" rx="0.593527" ry="0.593494" fill="white"/>
<circle cx="1617.31" cy="1068.22" r="0.593494" fill="white"/>
<circle cx="1706.34" cy="1068.22" r="0.593494" fill="white"/>
<ellipse cx="1771.62" cy="949.519" rx="0.593527" ry="0.593494" fill="white"/>
<ellipse cx="940.711" cy="29.5811" rx="0.593509" ry="0.59351" fill="white"/>
<circle cx="1029.74" cy="29.5811" r="0.59351" fill="white"/>
<ellipse cx="1118.76" cy="29.5811" rx="0.593502" ry="0.59351" fill="white"/>
<ellipse cx="1207.79" cy="29.5811" rx="0.593478" ry="0.59351" fill="white"/>
<circle cx="1296.82" cy="29.5811" r="0.59351" fill="white"/>
<ellipse cx="1385.84" cy="29.5811" rx="0.593445" ry="0.59351" fill="white"/>
<ellipse cx="1474.87" cy="29.5811" rx="0.593527" ry="0.59351" fill="white"/>
<ellipse cx="1563.89" cy="29.5811" rx="0.593494" ry="0.59351" fill="white"/>
<ellipse cx="1652.92" cy="29.5811" rx="0.593494" ry="0.59351" fill="white"/>
<ellipse cx="1741.95" cy="29.5811" rx="0.593527" ry="0.59351" fill="white"/>
<ellipse cx="982.257" cy="88.932" rx="0.593514" ry="0.59351" fill="white"/>
<circle cx="1071.28" cy="88.932" r="0.59351" fill="white"/>
<ellipse cx="1160.31" cy="88.932" rx="0.593535" ry="0.59351" fill="white"/>
<circle cx="1249.34" cy="88.932" r="0.59351" fill="white"/>
<ellipse cx="1338.36" cy="88.932" rx="0.593494" ry="0.59351" fill="white"/>
<ellipse cx="1427.39" cy="88.932" rx="0.593559" ry="0.59351" fill="white"/>
<ellipse cx="1516.41" cy="88.932" rx="0.593527" ry="0.59351" fill="white"/>
<ellipse cx="1605.44" cy="88.932" rx="0.593527" ry="0.59351" fill="white"/>
<ellipse cx="1694.47" cy="88.932" rx="0.593494" ry="0.59351" fill="white"/>
<ellipse cx="1783.49" cy="88.932" rx="0.593722" ry="0.59351" fill="white"/>
<circle cx="964.451" cy="148.283" r="0.59351" fill="white"/>
<circle cx="1053.48" cy="148.283" r="0.59351" fill="white"/>
<ellipse cx="1142.5" cy="148.283" rx="0.593486" ry="0.59351" fill="white"/>
<ellipse cx="1231.53" cy="148.283" rx="0.593494" ry="0.59351" fill="white"/>
<circle cx="1320.56" cy="148.283" r="0.59351" fill="white"/>
<circle cx="1409.58" cy="148.283" r="0.59351" fill="white"/>
<ellipse cx="1498.61" cy="148.283" rx="0.593461" ry="0.59351" fill="white"/>
<ellipse cx="1587.64" cy="148.283" rx="0.593494" ry="0.59351" fill="white"/>
<ellipse cx="1676.66" cy="148.283" rx="0.593527" ry="0.59351" fill="white"/>
<ellipse cx="1765.69" cy="148.283" rx="0.593527" ry="0.59351" fill="white"/>
<ellipse cx="982.257" cy="207.634" rx="0.593514" ry="0.59351" fill="white"/>
<circle cx="1071.28" cy="207.634" r="0.59351" fill="white"/>
<ellipse cx="1160.31" cy="207.634" rx="0.593535" ry="0.59351" fill="white"/>
<circle cx="1249.34" cy="207.634" r="0.59351" fill="white"/>
<ellipse cx="1338.36" cy="207.634" rx="0.593494" ry="0.59351" fill="white"/>
<ellipse cx="1427.39" cy="207.634" rx="0.593559" ry="0.59351" fill="white"/>
<ellipse cx="1516.41" cy="207.634" rx="0.593527" ry="0.59351" fill="white"/>
<ellipse cx="1605.44" cy="207.634" rx="0.593527" ry="0.59351" fill="white"/>
<ellipse cx="1694.47" cy="207.634" rx="0.593494" ry="0.59351" fill="white"/>
<ellipse cx="1783.49" cy="207.634" rx="0.593722" ry="0.59351" fill="white"/>
<circle cx="952.581" cy="268.171" r="0.59351" fill="white"/>
<ellipse cx="1041.61" cy="268.171" rx="0.593522" ry="0.59351" fill="white"/>
<circle cx="1130.63" cy="268.171" r="0.59351" fill="white"/>
<ellipse cx="1219.66" cy="268.171" rx="0.593494" ry="0.59351" fill="white"/>
<ellipse cx="1308.69" cy="268.171" rx="0.593527" ry="0.59351" fill="white"/>
<circle cx="1397.71" cy="268.171" r="0.59351" fill="white"/>
<ellipse cx="1486.74" cy="268.171" rx="0.593527" ry="0.59351" fill="white"/>
<ellipse cx="1575.77" cy="268.171" rx="0.593494" ry="0.59351" fill="white"/>
<ellipse cx="1664.79" cy="268.171" rx="0.593527" ry="0.59351" fill="white"/>
<ellipse cx="1753.82" cy="268.171" rx="0.593527" ry="0.59351" fill="white"/>
<circle cx="988.192" cy="327.522" r="0.59351" fill="white"/>
<circle cx="1077.22" cy="327.522" r="0.59351" fill="white"/>
<ellipse cx="1166.24" cy="327.522" rx="0.593502" ry="0.59351" fill="white"/>
<ellipse cx="1255.27" cy="327.522" rx="0.593527" ry="0.59351" fill="white"/>
<circle cx="1344.3" cy="327.522" r="0.59351" fill="white"/>
<circle cx="1433.32" cy="327.522" r="0.59351" fill="white"/>
<ellipse cx="1522.35" cy="327.522" rx="0.593494" ry="0.59351" fill="white"/>
<ellipse cx="1611.38" cy="327.522" rx="0.593527" ry="0.59351" fill="white"/>
<ellipse cx="1700.4" cy="327.522" rx="0.593527" ry="0.59351" fill="white"/>
<ellipse cx="976.321" cy="386.873" rx="0.593502" ry="0.59351" fill="white"/>
<ellipse cx="1065.35" cy="386.873" rx="0.593518" ry="0.59351" fill="white"/>
<ellipse cx="1154.37" cy="386.873" rx="0.593478" ry="0.59351" fill="white"/>
<circle cx="1243.4" cy="386.873" r="0.59351" fill="white"/>
<circle cx="1332.43" cy="386.873" r="0.59351" fill="white"/>
<circle cx="1421.45" cy="386.873" r="0.59351" fill="white"/>
<ellipse cx="1510.48" cy="386.873" rx="0.593559" ry="0.59351" fill="white"/>
<ellipse cx="1599.51" cy="386.873" rx="0.593494" ry="0.59351" fill="white"/>
<ellipse cx="1688.53" cy="386.873" rx="0.593527" ry="0.59351" fill="white"/>
<ellipse cx="1777.56" cy="386.873" rx="0.593396" ry="0.59351" fill="white"/>
<ellipse cx="1011.93" cy="446.224" rx="0.59351" ry="0.593494" fill="white"/>
<ellipse cx="1100.96" cy="446.224" rx="0.593502" ry="0.593494" fill="white"/>
<ellipse cx="1189.98" cy="446.224" rx="0.593535" ry="0.593494" fill="white"/>
<ellipse cx="1279.01" cy="446.224" rx="0.59351" ry="0.593494" fill="white"/>
<ellipse cx="1368.04" cy="446.224" rx="0.59351" ry="0.593494" fill="white"/>
<ellipse cx="1457.06" cy="446.224" rx="0.593559" ry="0.593494" fill="white"/>
<circle cx="1546.09" cy="446.224" r="0.593494" fill="white"/>
<ellipse cx="1635.12" cy="446.224" rx="0.593527" ry="0.593494" fill="white"/>
<circle cx="1724.14" cy="446.224" r="0.593494" fill="white"/>
<ellipse cx="1813.17" cy="445.037" rx="0.593364" ry="0.593494" fill="white"/>
<ellipse cx="964.451" cy="505.575" rx="0.59351" ry="0.593527" fill="white"/>
<ellipse cx="1053.48" cy="505.575" rx="0.59351" ry="0.593527" fill="white"/>
<ellipse cx="1142.5" cy="505.575" rx="0.593486" ry="0.593527" fill="white"/>
<ellipse cx="1231.53" cy="505.575" rx="0.593494" ry="0.593527" fill="white"/>
<ellipse cx="1320.56" cy="505.575" rx="0.59351" ry="0.593527" fill="white"/>
<ellipse cx="1409.58" cy="505.575" rx="0.59351" ry="0.593527" fill="white"/>
<ellipse cx="1498.61" cy="505.575" rx="0.593461" ry="0.593527" fill="white"/>
<ellipse cx="1587.64" cy="505.575" rx="0.593494" ry="0.593527" fill="white"/>
<circle cx="1676.66" cy="505.575" r="0.593527" fill="white"/>
<circle cx="1765.69" cy="505.575" r="0.593527" fill="white"/>
<ellipse cx="982.257" cy="564.926" rx="0.593514" ry="0.593527" fill="white"/>
<ellipse cx="1071.28" cy="564.926" rx="0.59351" ry="0.593527" fill="white"/>
<ellipse cx="1160.31" cy="564.926" rx="0.593535" ry="0.593527" fill="white"/>
<ellipse cx="1249.34" cy="564.926" rx="0.59351" ry="0.593527" fill="white"/>
<ellipse cx="1338.36" cy="564.926" rx="0.593494" ry="0.593527" fill="white"/>
<ellipse cx="1427.39" cy="564.926" rx="0.593559" ry="0.593527" fill="white"/>
<circle cx="1516.41" cy="564.926" r="0.593527" fill="white"/>
<circle cx="1605.44" cy="564.926" r="0.593527" fill="white"/>
<ellipse cx="1694.47" cy="564.926" rx="0.593494" ry="0.593527" fill="white"/>
<ellipse cx="1783.49" cy="564.926" rx="0.593722" ry="0.593527" fill="white"/>
<ellipse cx="1023.8" cy="630.211" rx="0.59351" ry="0.593494" fill="white"/>
<ellipse cx="1112.83" cy="630.211" rx="0.59351" ry="0.593494" fill="white"/>
<ellipse cx="1201.85" cy="630.211" rx="0.593527" ry="0.593494" fill="white"/>
<ellipse cx="1290.88" cy="630.211" rx="0.59351" ry="0.593494" fill="white"/>
<ellipse cx="1379.91" cy="630.211" rx="0.59351" ry="0.593494" fill="white"/>
<circle cx="1468.93" cy="630.211" r="0.593494" fill="white"/>
<ellipse cx="1557.96" cy="630.211" rx="0.593527" ry="0.593494" fill="white"/>
<ellipse cx="1646.99" cy="630.211" rx="0.593527" ry="0.593494" fill="white"/>
<circle cx="1736.01" cy="630.211" r="0.593494" fill="white"/>
<circle cx="1825.04" cy="629.025" r="0.593527" fill="white"/>
<ellipse cx="988.192" cy="695.497" rx="0.59351" ry="0.593494" fill="white"/>
<ellipse cx="1077.22" cy="695.497" rx="0.59351" ry="0.593494" fill="white"/>
<ellipse cx="1166.24" cy="695.497" rx="0.593502" ry="0.593494" fill="white"/>
<ellipse cx="1255.27" cy="695.497" rx="0.593527" ry="0.593494" fill="white"/>
<ellipse cx="1344.3" cy="695.497" rx="0.59351" ry="0.593494" fill="white"/>
<ellipse cx="1433.32" cy="695.497" rx="0.59351" ry="0.593494" fill="white"/>
<circle cx="1522.35" cy="695.497" r="0.593494" fill="white"/>
<ellipse cx="1611.38" cy="695.497" rx="0.593527" ry="0.593494" fill="white"/>
<ellipse cx="1700.4" cy="695.497" rx="0.593527" ry="0.593494" fill="white"/>
<ellipse cx="1789.43" cy="695.497" rx="0.593527" ry="0.593494" fill="white"/>
<circle cx="1035.67" cy="759.597" r="0.593494" fill="white"/>
<ellipse cx="1124.7" cy="759.597" rx="0.59351" ry="0.593494" fill="white"/>
<ellipse cx="1213.72" cy="759.597" rx="0.593543" ry="0.593494" fill="white"/>
<ellipse cx="1302.75" cy="759.597" rx="0.59351" ry="0.593494" fill="white"/>
<ellipse cx="1391.78" cy="759.597" rx="0.593445" ry="0.593494" fill="white"/>
<ellipse cx="1480.8" cy="759.597" rx="0.593559" ry="0.593494" fill="white"/>
<ellipse cx="1569.83" cy="759.597" rx="0.593527" ry="0.593494" fill="white"/>
<ellipse cx="1658.86" cy="759.597" rx="0.593527" ry="0.593494" fill="white"/>
<circle cx="1747.88" cy="759.597" r="0.593494" fill="white"/>
<ellipse cx="1000.06" cy="824.883" rx="0.59351" ry="0.593527" fill="white"/>
<ellipse cx="1089.09" cy="824.883" rx="0.59351" ry="0.593527" fill="white"/>
<ellipse cx="1178.11" cy="824.883" rx="0.593502" ry="0.593527" fill="white"/>
<ellipse cx="1267.14" cy="824.883" rx="0.59351" ry="0.593527" fill="white"/>
<ellipse cx="1356.17" cy="824.883" rx="0.59351" ry="0.593527" fill="white"/>
<ellipse cx="1445.19" cy="824.883" rx="0.593445" ry="0.593527" fill="white"/>
<ellipse cx="1534.22" cy="824.883" rx="0.593494" ry="0.593527" fill="white"/>
<circle cx="1623.25" cy="824.883" r="0.593527" fill="white"/>
<circle cx="1712.27" cy="824.883" r="0.593527" fill="white"/>
<circle cx="1801.3" cy="824.883" r="0.593527" fill="white"/>
<ellipse cx="964.451" cy="890.168" rx="0.59351" ry="0.593527" fill="white"/>
<ellipse cx="1053.48" cy="890.168" rx="0.59351" ry="0.593527" fill="white"/>
<ellipse cx="1142.5" cy="890.168" rx="0.593486" ry="0.593527" fill="white"/>
<ellipse cx="1231.53" cy="890.168" rx="0.593494" ry="0.593527" fill="white"/>
<ellipse cx="1320.56" cy="890.168" rx="0.59351" ry="0.593527" fill="white"/>
<ellipse cx="1409.58" cy="890.168" rx="0.59351" ry="0.593527" fill="white"/>
<ellipse cx="1498.61" cy="890.168" rx="0.593461" ry="0.593527" fill="white"/>
<ellipse cx="1587.64" cy="890.168" rx="0.593494" ry="0.593527" fill="white"/>
<circle cx="1676.66" cy="890.168" r="0.593527" fill="white"/>
<circle cx="1765.69" cy="890.168" r="0.593527" fill="white"/>
<ellipse cx="1000.06" cy="955.454" rx="0.59351" ry="0.593494" fill="white"/>
<ellipse cx="1089.09" cy="955.454" rx="0.59351" ry="0.593494" fill="white"/>
<ellipse cx="1178.11" cy="955.454" rx="0.593502" ry="0.593494" fill="white"/>
<ellipse cx="1267.14" cy="955.454" rx="0.59351" ry="0.593494" fill="white"/>
<ellipse cx="1356.17" cy="955.454" rx="0.59351" ry="0.593494" fill="white"/>
<ellipse cx="1445.19" cy="955.454" rx="0.593445" ry="0.593494" fill="white"/>
<circle cx="1534.22" cy="955.454" r="0.593494" fill="white"/>
<ellipse cx="1623.25" cy="955.454" rx="0.593527" ry="0.593494" fill="white"/>
<ellipse cx="1712.27" cy="955.454" rx="0.593527" ry="0.593494" fill="white"/>
<ellipse cx="976.321" cy="1014.81" rx="0.593502" ry="0.593494" fill="white"/>
<ellipse cx="1065.35" cy="1014.81" rx="0.593518" ry="0.593494" fill="white"/>
<ellipse cx="1154.37" cy="1014.81" rx="0.593478" ry="0.593494" fill="white"/>
<ellipse cx="1243.4" cy="1014.81" rx="0.59351" ry="0.593494" fill="white"/>
<ellipse cx="1332.43" cy="1014.81" rx="0.59351" ry="0.593494" fill="white"/>
<ellipse cx="1421.45" cy="1014.81" rx="0.59351" ry="0.593494" fill="white"/>
<ellipse cx="1510.48" cy="1014.81" rx="0.593559" ry="0.593494" fill="white"/>
<circle cx="1599.51" cy="1014.81" r="0.593494" fill="white"/>
<ellipse cx="1688.53" cy="1014.81" rx="0.593527" ry="0.593494" fill="white"/>
<ellipse cx="1688.53" cy="1014.81" rx="0.593527" ry="0.593494" fill="white"/>
<ellipse cx="1023.8" cy="1074.16" rx="0.59351" ry="0.593559" fill="white"/>
<ellipse cx="1112.83" cy="1074.16" rx="0.59351" ry="0.593559" fill="white"/>
<ellipse cx="1201.85" cy="1074.16" rx="0.593527" ry="0.593559" fill="white"/>
<ellipse cx="1290.88" cy="1074.16" rx="0.59351" ry="0.593559" fill="white"/>
<ellipse cx="1379.91" cy="1074.16" rx="0.59351" ry="0.593559" fill="white"/>
<ellipse cx="1468.93" cy="1074.16" rx="0.593494" ry="0.593559" fill="white"/>
<ellipse cx="1557.96" cy="1074.16" rx="0.593527" ry="0.593559" fill="white"/>
<ellipse cx="1646.99" cy="1074.16" rx="0.593527" ry="0.593559" fill="white"/>
<ellipse cx="1736.01" cy="1074.16" rx="0.593494" ry="0.593559" fill="white"/>
<ellipse cx="1801.3" cy="955.454" rx="0.593527" ry="0.593494" fill="white"/>
<ellipse cx="877.799" cy="53.3215" rx="0.593508" ry="0.59351" fill="white"/>
<ellipse cx="966.825" cy="53.3215" rx="0.593508" ry="0.59351" fill="white"/>
<ellipse cx="1055.85" cy="53.3215" rx="0.593527" ry="0.59351" fill="white"/>
<ellipse cx="1144.88" cy="53.3215" rx="0.593486" ry="0.59351" fill="white"/>
<circle cx="1233.9" cy="53.3215" r="0.59351" fill="white"/>
<circle cx="1322.93" cy="53.3215" r="0.59351" fill="white"/>
<ellipse cx="1411.96" cy="53.3215" rx="0.593559" ry="0.59351" fill="white"/>
<ellipse cx="1500.98" cy="53.3215" rx="0.593527" ry="0.59351" fill="white"/>
<ellipse cx="1590.01" cy="53.3215" rx="0.593494" ry="0.59351" fill="white"/>
<ellipse cx="1679.04" cy="53.3215" rx="0.593494" ry="0.59351" fill="white"/>
<ellipse cx="919.345" cy="112.672" rx="0.593509" ry="0.59351" fill="white"/>
<circle cx="1008.37" cy="112.672" r="0.59351" fill="white"/>
<circle cx="1097.4" cy="112.672" r="0.59351" fill="white"/>
<ellipse cx="1186.42" cy="112.672" rx="0.593486" ry="0.59351" fill="white"/>
<ellipse cx="1275.45" cy="112.672" rx="0.593494" ry="0.59351" fill="white"/>
<ellipse cx="1364.48" cy="112.672" rx="0.593527" ry="0.59351" fill="white"/>
<ellipse cx="1453.5" cy="112.672" rx="0.593559" ry="0.59351" fill="white"/>
<ellipse cx="1542.53" cy="112.672" rx="0.593494" ry="0.59351" fill="white"/>
<ellipse cx="1631.55" cy="112.672" rx="0.593527" ry="0.59351" fill="white"/>
<ellipse cx="1720.58" cy="112.672" rx="0.593494" ry="0.59351" fill="white"/>
<ellipse cx="901.539" cy="172.023" rx="0.593509" ry="0.59351" fill="white"/>
<circle cx="990.566" cy="172.023" r="0.59351" fill="white"/>
<circle cx="1079.59" cy="172.023" r="0.59351" fill="white"/>
<ellipse cx="1168.62" cy="172.023" rx="0.593502" ry="0.59351" fill="white"/>
<circle cx="1257.64" cy="172.023" r="0.59351" fill="white"/>
<ellipse cx="1346.67" cy="172.023" rx="0.593559" ry="0.59351" fill="white"/>
<circle cx="1435.7" cy="172.023" r="0.59351" fill="white"/>
<ellipse cx="1524.72" cy="172.023" rx="0.593527" ry="0.59351" fill="white"/>
<ellipse cx="1613.75" cy="172.023" rx="0.593494" ry="0.59351" fill="white"/>
<ellipse cx="1702.78" cy="172.023" rx="0.593494" ry="0.59351" fill="white"/>
<ellipse cx="919.345" cy="231.374" rx="0.593509" ry="0.59351" fill="white"/>
<circle cx="1008.37" cy="231.374" r="0.59351" fill="white"/>
<circle cx="1097.4" cy="231.374" r="0.59351" fill="white"/>
<ellipse cx="1186.42" cy="231.374" rx="0.593486" ry="0.59351" fill="white"/>
<ellipse cx="1275.45" cy="231.374" rx="0.593494" ry="0.59351" fill="white"/>
<ellipse cx="1364.48" cy="231.374" rx="0.593527" ry="0.59351" fill="white"/>
<ellipse cx="1453.5" cy="231.374" rx="0.593559" ry="0.59351" fill="white"/>
<ellipse cx="1542.53" cy="231.374" rx="0.593494" ry="0.59351" fill="white"/>
<ellipse cx="1631.55" cy="231.374" rx="0.593527" ry="0.59351" fill="white"/>
<ellipse cx="1720.58" cy="231.374" rx="0.593494" ry="0.59351" fill="white"/>
<ellipse cx="889.669" cy="291.912" rx="0.593508" ry="0.59351" fill="white"/>
<ellipse cx="978.695" cy="291.912" rx="0.5935" ry="0.59351" fill="white"/>
<circle cx="1067.72" cy="291.912" r="0.59351" fill="white"/>
<circle cx="1156.75" cy="291.912" r="0.59351" fill="white"/>
<circle cx="1245.77" cy="291.912" r="0.59351" fill="white"/>
<circle cx="1334.8" cy="291.912" r="0.59351" fill="white"/>
<ellipse cx="1423.83" cy="291.912" rx="0.593445" ry="0.59351" fill="white"/>
<ellipse cx="1512.85" cy="291.912" rx="0.593494" ry="0.59351" fill="white"/>
<ellipse cx="1601.88" cy="291.912" rx="0.593494" ry="0.59351" fill="white"/>
<ellipse cx="1690.91" cy="291.912" rx="0.593527" ry="0.59351" fill="white"/>
<ellipse cx="925.28" cy="351.263" rx="0.593509" ry="0.59351" fill="white"/>
<circle cx="1014.31" cy="351.263" r="0.59351" fill="white"/>
<circle cx="1103.33" cy="351.263" r="0.59351" fill="white"/>
<circle cx="1192.36" cy="351.263" r="0.59351" fill="white"/>
<circle cx="1281.38" cy="351.263" r="0.59351" fill="white"/>
<ellipse cx="1370.41" cy="351.263" rx="0.593445" ry="0.59351" fill="white"/>
<circle cx="1459.44" cy="351.263" r="0.59351" fill="white"/>
<ellipse cx="1548.46" cy="351.263" rx="0.593494" ry="0.59351" fill="white"/>
<ellipse cx="1637.49" cy="351.263" rx="0.593527" ry="0.59351" fill="white"/>
<ellipse cx="913.41" cy="410.613" rx="0.593509" ry="0.593494" fill="white"/>
<ellipse cx="1002.44" cy="410.613" rx="0.59351" ry="0.593494" fill="white"/>
<ellipse cx="1091.46" cy="410.613" rx="0.59351" ry="0.593494" fill="white"/>
<ellipse cx="1180.49" cy="410.613" rx="0.593486" ry="0.593494" fill="white"/>
<ellipse cx="1269.51" cy="410.613" rx="0.59351" ry="0.593494" fill="white"/>
<ellipse cx="1358.54" cy="410.613" rx="0.593559" ry="0.593494" fill="white"/>
<ellipse cx="1447.57" cy="410.613" rx="0.59351" ry="0.593494" fill="white"/>
<circle cx="1536.59" cy="410.613" r="0.593494" fill="white"/>
<circle cx="1625.62" cy="410.613" r="0.593494" fill="white"/>
<ellipse cx="1714.65" cy="410.613" rx="0.593527" ry="0.593494" fill="white"/>
<ellipse cx="949.02" cy="469.964" rx="0.593509" ry="0.593527" fill="white"/>
<ellipse cx="1038.05" cy="469.964" rx="0.59351" ry="0.593527" fill="white"/>
<ellipse cx="1127.07" cy="469.964" rx="0.59351" ry="0.593527" fill="white"/>
<ellipse cx="1216.1" cy="469.964" rx="0.59351" ry="0.593527" fill="white"/>
<ellipse cx="1305.13" cy="469.964" rx="0.59351" ry="0.593527" fill="white"/>
<ellipse cx="1394.15" cy="469.964" rx="0.59351" ry="0.593527" fill="white"/>
<ellipse cx="1483.18" cy="469.964" rx="0.593429" ry="0.593527" fill="white"/>
<ellipse cx="1572.2" cy="469.964" rx="0.593494" ry="0.593527" fill="white"/>
<circle cx="1661.23" cy="469.964" r="0.593527" fill="white"/>
<ellipse cx="1750.26" cy="469.964" rx="0.593494" ry="0.593527" fill="white"/>
<ellipse cx="901.539" cy="529.315" rx="0.593509" ry="0.593494" fill="white"/>
<ellipse cx="990.566" cy="529.315" rx="0.59351" ry="0.593494" fill="white"/>
<ellipse cx="1079.59" cy="529.315" rx="0.59351" ry="0.593494" fill="white"/>
<ellipse cx="1168.62" cy="529.315" rx="0.593502" ry="0.593494" fill="white"/>
<ellipse cx="1257.64" cy="529.315" rx="0.59351" ry="0.593494" fill="white"/>
<ellipse cx="1346.67" cy="529.315" rx="0.593559" ry="0.593494" fill="white"/>
<ellipse cx="1435.7" cy="529.315" rx="0.59351" ry="0.593494" fill="white"/>
<ellipse cx="1524.72" cy="529.315" rx="0.593527" ry="0.593494" fill="white"/>
<circle cx="1613.75" cy="529.315" r="0.593494" fill="white"/>
<circle cx="1702.78" cy="529.315" r="0.593494" fill="white"/>
<ellipse cx="919.345" cy="588.666" rx="0.593509" ry="0.593527" fill="white"/>
<ellipse cx="1008.37" cy="588.666" rx="0.59351" ry="0.593527" fill="white"/>
<ellipse cx="1097.4" cy="588.666" rx="0.59351" ry="0.593527" fill="white"/>
<ellipse cx="1186.42" cy="588.666" rx="0.593486" ry="0.593527" fill="white"/>
<ellipse cx="1275.45" cy="588.666" rx="0.593494" ry="0.593527" fill="white"/>
<circle cx="1364.48" cy="588.666" r="0.593527" fill="white"/>
<ellipse cx="1453.5" cy="588.666" rx="0.593559" ry="0.593527" fill="white"/>
<ellipse cx="1542.53" cy="588.666" rx="0.593494" ry="0.593527" fill="white"/>
<circle cx="1631.55" cy="588.666" r="0.593527" fill="white"/>
<ellipse cx="1720.58" cy="588.666" rx="0.593494" ry="0.593527" fill="white"/>
<ellipse cx="960.89" cy="653.952" rx="0.593508" ry="0.593494" fill="white"/>
<circle cx="1049.92" cy="653.952" r="0.593494" fill="white"/>
<ellipse cx="1138.94" cy="653.952" rx="0.593518" ry="0.593494" fill="white"/>
<ellipse cx="1227.97" cy="653.952" rx="0.59351" ry="0.593494" fill="white"/>
<circle cx="1317" cy="653.952" r="0.593494" fill="white"/>
<ellipse cx="1406.02" cy="653.952" rx="0.59351" ry="0.593494" fill="white"/>
<ellipse cx="1495.05" cy="653.952" rx="0.593559" ry="0.593494" fill="white"/>
<ellipse cx="1584.07" cy="653.952" rx="0.593527" ry="0.593494" fill="white"/>
<circle cx="1673.1" cy="653.952" r="0.593494" fill="white"/>
<circle cx="1762.13" cy="653.952" r="0.593494" fill="white"/>
<ellipse cx="925.28" cy="719.238" rx="0.593509" ry="0.593527" fill="white"/>
<ellipse cx="1014.31" cy="719.238" rx="0.59351" ry="0.593527" fill="white"/>
<ellipse cx="1103.33" cy="719.238" rx="0.59351" ry="0.593527" fill="white"/>
<ellipse cx="1192.36" cy="719.238" rx="0.59351" ry="0.593527" fill="white"/>
<ellipse cx="1281.38" cy="719.238" rx="0.59351" ry="0.593527" fill="white"/>
<ellipse cx="1370.41" cy="719.238" rx="0.593445" ry="0.593527" fill="white"/>
<ellipse cx="1459.44" cy="719.238" rx="0.59351" ry="0.593527" fill="white"/>
<ellipse cx="1548.46" cy="719.238" rx="0.593494" ry="0.593527" fill="white"/>
<circle cx="1637.49" cy="719.238" r="0.593527" fill="white"/>
<ellipse cx="1726.52" cy="719.238" rx="0.593494" ry="0.593527" fill="white"/>
<ellipse cx="972.76" cy="783.337" rx="0.593514" ry="0.593461" fill="white"/>
<ellipse cx="1061.79" cy="783.337" rx="0.593494" ry="0.593461" fill="white"/>
<ellipse cx="1150.81" cy="783.337" rx="0.593543" ry="0.593461" fill="white"/>
<ellipse cx="1239.84" cy="783.337" rx="0.59351" ry="0.593461" fill="white"/>
<ellipse cx="1328.87" cy="783.337" rx="0.593494" ry="0.593461" fill="white"/>
<ellipse cx="1417.89" cy="783.337" rx="0.593527" ry="0.593461" fill="white"/>
<ellipse cx="1506.92" cy="783.337" rx="0.593559" ry="0.593461" fill="white"/>
<ellipse cx="1595.94" cy="783.337" rx="0.593494" ry="0.593461" fill="white"/>
<ellipse cx="1684.97" cy="783.337" rx="0.593527" ry="0.593461" fill="white"/>
<ellipse cx="937.15" cy="848.623" rx="0.593508" ry="0.593527" fill="white"/>
<ellipse cx="1026.18" cy="848.623" rx="0.593494" ry="0.593527" fill="white"/>
<ellipse cx="1115.2" cy="848.623" rx="0.59351" ry="0.593527" fill="white"/>
<ellipse cx="1204.23" cy="848.623" rx="0.593543" ry="0.593527" fill="white"/>
<ellipse cx="1293.26" cy="848.623" rx="0.59351" ry="0.593527" fill="white"/>
<ellipse cx="1382.28" cy="848.623" rx="0.59351" ry="0.593527" fill="white"/>
<circle cx="1471.31" cy="848.623" r="0.593527" fill="white"/>
<ellipse cx="1560.33" cy="848.623" rx="0.593494" ry="0.593527" fill="white"/>
<ellipse cx="1649.36" cy="848.623" rx="0.593494" ry="0.593527" fill="white"/>
<circle cx="1738.39" cy="848.623" r="0.593527" fill="white"/>
<ellipse cx="901.539" cy="913.909" rx="0.593509" ry="0.593494" fill="white"/>
<ellipse cx="990.566" cy="913.909" rx="0.59351" ry="0.593494" fill="white"/>
<ellipse cx="1079.59" cy="913.909" rx="0.59351" ry="0.593494" fill="white"/>
<ellipse cx="1168.62" cy="913.909" rx="0.593502" ry="0.593494" fill="white"/>
<ellipse cx="1257.64" cy="913.909" rx="0.59351" ry="0.593494" fill="white"/>
<ellipse cx="1346.67" cy="913.909" rx="0.593559" ry="0.593494" fill="white"/>
<ellipse cx="1435.7" cy="913.909" rx="0.59351" ry="0.593494" fill="white"/>
<ellipse cx="1524.72" cy="913.909" rx="0.593527" ry="0.593494" fill="white"/>
<circle cx="1613.75" cy="913.909" r="0.593494" fill="white"/>
<circle cx="1702.78" cy="913.909" r="0.593494" fill="white"/>
<ellipse cx="937.15" cy="979.195" rx="0.593508" ry="0.593429" fill="white"/>
<ellipse cx="1026.18" cy="979.195" rx="0.593494" ry="0.593429" fill="white"/>
<ellipse cx="1115.2" cy="979.195" rx="0.59351" ry="0.593429" fill="white"/>
<ellipse cx="1204.23" cy="979.195" rx="0.593543" ry="0.593429" fill="white"/>
<ellipse cx="1293.26" cy="979.195" rx="0.59351" ry="0.593429" fill="white"/>
<ellipse cx="1382.28" cy="979.195" rx="0.59351" ry="0.593429" fill="white"/>
<ellipse cx="1471.31" cy="979.195" rx="0.593527" ry="0.593429" fill="white"/>
<ellipse cx="1560.33" cy="979.195" rx="0.593494" ry="0.593429" fill="white"/>
<ellipse cx="1649.36" cy="979.195" rx="0.593494" ry="0.593429" fill="white"/>
<ellipse cx="913.41" cy="1038.55" rx="0.593509" ry="0.593494" fill="white"/>
<ellipse cx="1002.44" cy="1038.55" rx="0.59351" ry="0.593494" fill="white"/>
<ellipse cx="1091.46" cy="1038.55" rx="0.59351" ry="0.593494" fill="white"/>
<ellipse cx="1180.49" cy="1038.55" rx="0.593486" ry="0.593494" fill="white"/>
<ellipse cx="1269.51" cy="1038.55" rx="0.59351" ry="0.593494" fill="white"/>
<ellipse cx="1358.54" cy="1038.55" rx="0.593559" ry="0.593494" fill="white"/>
<ellipse cx="1447.57" cy="1038.55" rx="0.59351" ry="0.593494" fill="white"/>
<circle cx="1536.59" cy="1038.55" r="0.593494" fill="white"/>
<circle cx="1625.62" cy="1038.55" r="0.593494" fill="white"/>
<circle cx="1625.62" cy="1038.55" r="0.593494" fill="white"/>
<ellipse cx="1738.39" cy="979.195" rx="0.593527" ry="0.593429" fill="white"/>
<ellipse cx="921.719" cy="107.331" rx="1.18702" ry="1.18702" fill="white"/>
<ellipse cx="1099.77" cy="113.266" rx="1.18702" ry="1.18701" fill="white"/>
<circle cx="1277.82" cy="107.331" r="1.18702" fill="white"/>
<ellipse cx="1455.88" cy="101.396" rx="1.18697" ry="1.18701" fill="white"/>
<circle cx="1633.93" cy="107.331" r="1.18702" fill="white"/>
<ellipse cx="1811.98" cy="113.266" rx="1.18689" ry="1.18701" fill="white"/>
<ellipse cx="992.94" cy="226.032" rx="1.18701" ry="1.18702" fill="white"/>
<ellipse cx="1170.99" cy="231.968" rx="1.18699" ry="1.18702" fill="white"/>
<ellipse cx="1349.04" cy="226.032" rx="1.18697" ry="1.18702" fill="white"/>
<circle cx="1527.1" cy="220.097" r="1.18702" fill="white"/>
<ellipse cx="1705.15" cy="226.032" rx="1.18699" ry="1.18702" fill="white"/>
<circle cx="1883.2" cy="231.968" r="1.18702" fill="white"/>
<ellipse cx="963.264" cy="345.921" rx="1.18702" ry="1.18702" fill="white"/>
<circle cx="1141.32" cy="351.856" r="1.18702" fill="white"/>
<circle cx="1319.37" cy="345.921" r="1.18702" fill="white"/>
<ellipse cx="1497.42" cy="339.986" rx="1.18705" ry="1.187" fill="white"/>
<ellipse cx="1675.47" cy="345.921" rx="1.18699" ry="1.18702" fill="white"/>
<circle cx="1853.53" cy="350.669" r="1.18702" fill="white"/>
<ellipse cx="933.589" cy="464.623" rx="1.18702" ry="1.18702" fill="white"/>
<ellipse cx="1111.64" cy="470.558" rx="1.18701" ry="1.18702" fill="white"/>
<ellipse cx="1289.69" cy="464.623" rx="1.187" ry="1.18702" fill="white"/>
<ellipse cx="1467.75" cy="458.688" rx="1.18709" ry="1.18702" fill="white"/>
<circle cx="1645.8" cy="464.623" r="1.18702" fill="white"/>
<ellipse cx="1823.85" cy="469.371" rx="1.18689" ry="1.18702" fill="white"/>
<ellipse cx="1028.55" cy="583.324" rx="1.18703" ry="1.18702" fill="white"/>
<ellipse cx="1206.6" cy="589.259" rx="1.18702" ry="1.18705" fill="white"/>
<ellipse cx="1384.66" cy="583.324" rx="1.187" ry="1.18702" fill="white"/>
<circle cx="1562.71" cy="577.389" r="1.18702" fill="white"/>
<circle cx="1740.76" cy="583.324" r="1.18702" fill="white"/>
<ellipse cx="1918.81" cy="588.073" rx="1.18689" ry="1.18702" fill="white"/>
<ellipse cx="917.564" cy="702.026" rx="1.18702" ry="1.18702" fill="white"/>
<ellipse cx="1095.62" cy="707.961" rx="1.18701" ry="1.18702" fill="white"/>
<circle cx="1273.67" cy="702.026" r="1.18702" fill="white"/>
<circle cx="1451.72" cy="696.091" r="1.18702" fill="white"/>
<circle cx="1629.77" cy="702.026" r="1.18702" fill="white"/>
<ellipse cx="1807.83" cy="706.774" rx="1.18692" ry="1.18705" fill="white"/>
<ellipse cx="931.215" cy="804.11" rx="1.18701" ry="1.18702" fill="white"/>
<circle cx="1109.27" cy="810.045" r="1.18702" fill="white"/>
<circle cx="1287.32" cy="804.11" r="1.18702" fill="white"/>
<ellipse cx="1465.37" cy="798.175" rx="1.18699" ry="1.18702" fill="white"/>
<circle cx="1643.42" cy="804.11" r="1.18702" fill="white"/>
<circle cx="1821.48" cy="810.045" r="1.18702" fill="white"/>
<ellipse cx="974.541" cy="931.121" rx="1.18702" ry="1.18702" fill="white"/>
<circle cx="1152.59" cy="937.056" r="1.18699" fill="white"/>
<circle cx="1330.65" cy="931.121" r="1.18702" fill="white"/>
<ellipse cx="1508.7" cy="925.185" rx="1.18696" ry="1.18702" fill="white"/>
<ellipse cx="1686.75" cy="931.121" rx="1.18699" ry="1.18702" fill="white"/>
<ellipse cx="1864.8" cy="937.056" rx="1.18705" ry="1.18699" fill="white"/>
<ellipse cx="934.776" cy="1058.13" rx="1.18702" ry="1.18705" fill="white"/>
<ellipse cx="1112.83" cy="1064.07" rx="1.18701" ry="1.18699" fill="white"/>
<ellipse cx="1290.88" cy="1058.13" rx="1.18702" ry="1.18705" fill="white"/>
<ellipse cx="1468.93" cy="1052.2" rx="1.18702" ry="1.18699" fill="white"/>
<ellipse cx="1646.99" cy="1058.13" rx="1.18702" ry="1.18705" fill="white"/>
<ellipse cx="1732.45" cy="1036.77" rx="1.18702" ry="1.18705" fill="white"/>
<ellipse cx="1825.04" cy="1064.07" rx="1.18712" ry="1.18699" fill="white"/>
<ellipse cx="874.238" cy="53.915" rx="1.18702" ry="1.18701" fill="white"/>
<ellipse cx="1052.29" cy="59.85" rx="1.187" ry="1.18701" fill="white"/>
<ellipse cx="1230.34" cy="53.915" rx="1.187" ry="1.18701" fill="white"/>
<ellipse cx="1408.4" cy="47.98" rx="1.187" ry="1.18702" fill="white"/>
<ellipse cx="1586.45" cy="53.915" rx="1.18702" ry="1.18701" fill="white"/>
<ellipse cx="1764.5" cy="59.85" rx="1.18705" ry="1.18701" fill="white"/>
<ellipse cx="838.627" cy="172.617" rx="1.18702" ry="1.18702" fill="white"/>
<ellipse cx="1016.68" cy="178.552" rx="1.18702" ry="1.18704" fill="white"/>
<circle cx="1194.73" cy="172.617" r="1.18702" fill="white"/>
<ellipse cx="1372.79" cy="166.682" rx="1.18707" ry="1.18702" fill="white"/>
<ellipse cx="1550.84" cy="172.617" rx="1.18705" ry="1.18702" fill="white"/>
<ellipse cx="1728.89" cy="178.552" rx="1.18699" ry="1.18704" fill="white"/>
<ellipse cx="909.848" cy="292.505" rx="1.18702" ry="1.18702" fill="white"/>
<ellipse cx="1087.9" cy="298.44" rx="1.18701" ry="1.187" fill="white"/>
<circle cx="1265.95" cy="292.505" r="1.18702" fill="white"/>
<ellipse cx="1444.01" cy="286.57" rx="1.18704" ry="1.18702" fill="white"/>
<ellipse cx="1622.06" cy="292.505" rx="1.18699" ry="1.18702" fill="white"/>
<circle cx="1800.11" cy="297.253" r="1.18702" fill="white"/>
<ellipse cx="880.173" cy="411.207" rx="1.18702" ry="1.18699" fill="white"/>
<ellipse cx="1058.23" cy="417.142" rx="1.18701" ry="1.18702" fill="white"/>
<ellipse cx="1236.28" cy="411.207" rx="1.187" ry="1.18699" fill="white"/>
<ellipse cx="1414.33" cy="405.272" rx="1.18707" ry="1.18702" fill="white"/>
<ellipse cx="1592.38" cy="411.207" rx="1.18702" ry="1.18699" fill="white"/>
<circle cx="1770.44" cy="417.142" r="1.18702" fill="white"/>
<ellipse cx="850.498" cy="528.722" rx="1.18702" ry="1.18702" fill="white"/>
<ellipse cx="1028.55" cy="535.844" rx="1.18703" ry="1.18702" fill="white"/>
<circle cx="1206.6" cy="529.909" r="1.18702" fill="white"/>
<ellipse cx="1384.66" cy="523.973" rx="1.187" ry="1.18702" fill="white"/>
<circle cx="1562.71" cy="529.909" r="1.18702" fill="white"/>
<circle cx="1740.76" cy="535.844" r="1.18702" fill="white"/>
<ellipse cx="945.459" cy="648.61" rx="1.18702" ry="1.18699" fill="white"/>
<circle cx="1123.51" cy="654.545" r="1.18702" fill="white"/>
<ellipse cx="1301.56" cy="648.61" rx="1.18702" ry="1.18699" fill="white"/>
<ellipse cx="1479.62" cy="642.675" rx="1.18709" ry="1.18702" fill="white"/>
<ellipse cx="1657.67" cy="648.61" rx="1.18705" ry="1.18699" fill="white"/>
<circle cx="1835.72" cy="653.359" r="1.18702" fill="white"/>
<ellipse cx="834.473" cy="766.125" rx="1.18702" ry="1.18702" fill="white"/>
<ellipse cx="1012.53" cy="772.06" rx="1.18702" ry="1.18702" fill="white"/>
<ellipse cx="1190.58" cy="766.125" rx="1.18704" ry="1.18702" fill="white"/>
<ellipse cx="1368.63" cy="760.19" rx="1.18707" ry="1.18702" fill="white"/>
<circle cx="1546.68" cy="766.125" r="1.18702" fill="white"/>
<circle cx="1724.74" cy="772.06" r="1.18702" fill="white"/>
<ellipse cx="848.124" cy="869.396" rx="1.18702" ry="1.18699" fill="white"/>
<ellipse cx="1026.18" cy="875.331" rx="1.187" ry="1.18702" fill="white"/>
<ellipse cx="1204.23" cy="869.396" rx="1.187" ry="1.18699" fill="white"/>
<ellipse cx="1382.28" cy="863.461" rx="1.18707" ry="1.18705" fill="white"/>
<ellipse cx="1560.33" cy="869.396" rx="1.18702" ry="1.18699" fill="white"/>
<circle cx="1738.39" cy="875.331" r="1.18702" fill="white"/>
<ellipse cx="891.45" cy="996.406" rx="1.18701" ry="1.18699" fill="white"/>
<ellipse cx="1069.5" cy="1002.34" rx="1.18701" ry="1.18699" fill="white"/>
<ellipse cx="1247.55" cy="996.406" rx="1.18702" ry="1.18699" fill="white"/>
<ellipse cx="1425.61" cy="990.471" rx="1.18697" ry="1.18699" fill="white"/>
<ellipse cx="1603.66" cy="996.406" rx="1.18702" ry="1.18699" fill="white"/>
<ellipse cx="1781.71" cy="1002.34" rx="1.18692" ry="1.18699" fill="white"/>
</svg>
